<svg width="177" height="62" viewBox="0 0 177 62" fill="none" xmlns="http://www.w3.org/2000/svg">
<path d="M20.5751 0.501953C24.7774 0.501953 26.1001 3.47626 27.2004 6.45057L38.9058 38.1611C38.9638 38.3132 38.9596 38.4817 38.894 38.6307C38.8285 38.7798 38.7067 38.8978 38.5546 38.9596L32.1869 41.4363C32.1116 41.4639 32.0315 41.4766 31.9512 41.4735C31.871 41.4705 31.7921 41.4517 31.7192 41.4184C31.6463 41.385 31.5808 41.3377 31.5265 41.2792C31.4721 41.2207 31.43 41.1522 31.4026 41.0775C31.2856 40.7766 28.9328 34.3303 28.6636 33.6128H12.4633C12.2058 34.3303 9.8296 40.7882 9.72425 41.0775C9.6981 41.1517 9.65721 41.2201 9.60398 41.2784C9.55076 41.3368 9.48627 41.3841 9.41431 41.4176C9.34234 41.451 9.26435 41.4698 9.18491 41.4731C9.10547 41.4763 9.02618 41.4638 8.9517 41.4363L2.59567 38.9712C2.44335 38.9092 2.32084 38.7919 2.25334 38.6434C2.18585 38.4948 2.1785 38.3264 2.2328 38.1726C2.63079 37.0153 13.388 7.97822 13.9382 6.46214C15.0034 3.53413 16.3729 0.513527 20.5869 0.513527L20.5751 0.501953ZM1.36661 53.3914C1.28513 53.3929 1.20475 53.4102 1.13007 53.4424C1.05538 53.4747 0.987846 53.5211 0.931322 53.5792C0.874798 53.6372 0.830392 53.7057 0.80064 53.7807C0.770888 53.8557 0.756373 53.9358 0.757925 54.0163V60.9602C0.757896 61.1209 0.821649 61.2752 0.935474 61.3899C1.0493 61.5046 1.20411 61.5706 1.36661 61.5736H39.772C39.9365 61.5736 40.0943 61.509 40.2107 61.3939C40.327 61.2789 40.3924 61.1229 40.3924 60.9602V54.0163C40.3939 53.9348 40.379 53.8538 40.3486 53.778C40.3181 53.7023 40.2726 53.6333 40.2149 53.5751C40.1571 53.5169 40.0882 53.4707 40.0121 53.4391C39.9361 53.4076 39.8545 53.3913 39.772 53.3914H1.36661ZM20.54 10.1887L15.0736 26.3911H26.1001L20.6571 10.1887H20.54ZM102.595 36.807C101.965 37.0347 101.299 37.1484 100.628 37.1426C100.364 37.1978 100.091 37.1901 99.8309 37.12C99.5707 37.0499 99.3311 36.9195 99.132 36.7397C98.9329 36.5598 98.7801 36.3356 98.6861 36.0857C98.5921 35.8357 98.5597 35.5673 98.5916 35.3025C98.5916 33.9253 99.5163 33.4624 101.319 33.4624C101.683 33.4584 102.045 33.5052 102.396 33.6012V34.5965C102.366 35.3387 102.433 36.0816 102.595 36.807ZM107.277 38.3925C106.404 37.1959 105.989 35.7317 106.106 34.2609V30.5228C106.106 28.5206 105.872 27.8031 105.334 27.0508C104.585 26.0208 103.356 25.5694 101.073 25.5694C99.4951 25.5605 97.9221 25.7472 96.391 26.125L96.9411 28.7636C97.8866 28.6164 98.8405 28.5275 99.7972 28.4975C102.22 28.4975 102.489 28.8447 102.489 30.6385V31.3097C101.887 31.1478 101.265 31.066 100.64 31.0667C96.9996 31.0667 95.0683 32.8258 95.0683 35.696C95.0543 36.2795 95.1653 36.8593 95.3938 37.3974C95.6223 37.9356 95.9632 38.4199 96.3942 38.8187C96.8252 39.2175 97.3365 39.5218 97.8947 39.7116C98.4529 39.9014 99.0454 39.9725 99.6334 39.9202C100.554 39.9257 101.467 39.7608 102.326 39.4341C102.774 39.2421 103.201 39.0055 103.601 38.7281C103.966 39.2181 104.444 39.6148 104.994 39.8855L107.277 38.3925ZM143.306 36.807C142.676 37.0347 142.01 37.1484 141.34 37.1426C141.075 37.1973 140.802 37.1892 140.541 37.1191C140.281 37.049 140.04 36.9189 139.841 36.7393C139.641 36.5598 139.487 36.3359 139.391 36.0862C139.296 35.8364 139.261 35.5679 139.291 35.3025C139.291 33.9253 140.228 33.4624 142.042 33.4624C142.406 33.4578 142.768 33.5046 143.119 33.6012V34.5965C143.087 35.3426 143.154 36.0896 143.318 36.8186L143.306 36.807ZM148 38.4041C147.124 37.2088 146.709 35.7436 146.829 34.2725V30.5228C146.829 28.5206 146.584 27.8031 146.045 27.0508C145.308 26.0208 144.067 25.5694 141.784 25.5694C140.206 25.5613 138.634 25.7479 137.102 26.125L137.641 28.7636C138.594 28.6155 139.556 28.5266 140.52 28.4975C142.932 28.4975 143.213 28.8447 143.213 30.6385V31.3097C142.61 31.1478 141.988 31.066 141.363 31.0667C137.711 31.0667 135.78 32.8258 135.78 35.696C135.767 36.28 135.88 36.86 136.11 37.3982C136.339 37.9363 136.682 38.4205 137.113 38.8191C137.545 39.2178 138.057 39.5219 138.616 39.7116C139.175 39.9013 139.768 39.9724 140.356 39.9202C141.273 39.9267 142.182 39.7618 143.037 39.4341C143.486 39.2433 143.914 39.0067 144.313 38.7281C144.678 39.2172 145.156 39.6137 145.706 39.8855L148 38.4041ZM176.339 39.6887C176.339 39.6887 174.337 35.4761 173.857 34.5271C173.69 34.0263 173.402 33.5731 173.019 33.2063C172.636 32.8395 172.168 32.5699 171.657 32.4208V32.3629C172.406 32.224 173.014 31.7727 173.67 30.3955C173.906 29.6645 174.306 28.9958 174.84 28.4396C174.958 28.3446 175.096 28.2767 175.244 28.2407C175.392 28.2046 175.546 28.2014 175.695 28.2313L175.882 25.7546C175.318 25.7024 174.75 25.7024 174.185 25.7546C173.814 25.75 173.446 25.8205 173.104 25.9618C172.762 26.1031 172.452 26.3123 172.195 26.5763C171.795 27.0444 171.471 27.5716 171.235 28.1387C170.896 28.8331 170.627 29.4002 170.275 30.1061C170.21 30.4313 170.023 30.7203 169.752 30.9154C169.481 31.1106 169.145 31.1976 168.812 31.1593H168.145V20.1648H164.493V39.7234H168.145V34.0642H168.648C169.69 34.0642 169.877 34.3188 170.428 35.4182C171.071 36.7144 172.312 39.7003 172.312 39.7003H176.339V39.6887ZM73.5537 39.6887H77.7677L71.3883 20.4541C70.6314 20.2151 69.8416 20.0941 69.0472 20.0953C68.3396 20.0818 67.6361 20.2036 66.9753 20.4541L60.1979 39.6887H64.2363C64.2363 39.6887 64.7864 37.999 65.4068 35.9159H72.43C73.0504 37.999 73.6006 39.6887 73.6006 39.6887H73.5537ZM66.5071 32.7448L67.8532 28.2891C68.3214 26.7383 69.0238 24.2617 69.0238 24.2617H69.1408C69.1408 24.2617 69.7963 26.8193 70.2177 28.2544L71.4936 32.7448H66.4486H66.5071ZM113.539 30.5459C113.076 30.5459 112.624 30.6817 112.239 30.936C111.854 31.1903 111.554 31.5518 111.376 31.9748C111.199 32.3977 111.153 32.8631 111.243 33.3121C111.334 33.7611 111.557 34.1735 111.884 34.4972C112.211 34.8209 112.629 35.0414 113.083 35.1307C113.537 35.22 114.007 35.1742 114.435 34.999C114.863 34.8238 115.229 34.5271 115.486 34.1465C115.743 33.7658 115.88 33.3183 115.88 32.8605C115.88 32.2467 115.634 31.6579 115.195 31.2238C114.756 30.7898 114.16 30.5459 113.539 30.5459ZM82.7659 20.1301H79.1021V39.6887H82.7659V20.1301ZM155.445 28.7058C157.47 28.7058 157.715 29.1571 157.715 30.8352V39.6887H161.344V30.5228C161.344 28.5206 161.11 27.8031 160.572 27.0508C159.822 26.0208 158.371 25.5694 155.889 25.5694C153.855 25.5293 151.827 25.8146 149.885 26.4143V39.6887H153.548V28.8678C154.177 28.7493 154.816 28.6912 155.456 28.6942L155.445 28.7058ZM91.8259 19.7829C89.4848 19.7829 88.3142 20.2342 87.5651 21.2642C87.0267 21.9933 86.7925 22.734 86.7925 24.7362V26.3911H84.9548V29.3192H86.7691V39.6424H90.3978V29.3654H94.0148V26.3911H90.3861V24.8751C90.3861 23.0812 90.667 22.734 93.09 22.734H93.9562L94.5298 19.9217C93.6255 19.8052 92.7144 19.7472 91.8025 19.7481L91.8259 19.7829ZM120.902 19.9333C122.143 19.8639 124.929 19.7597 126.673 19.7597H127.656C128.383 19.732 129.108 19.856 129.784 20.1235C130.459 20.391 131.07 20.7961 131.577 21.3124C132.084 21.8287 132.475 22.4447 132.725 23.1203C132.975 23.7959 133.079 24.5161 133.029 25.2338C133.073 26.1557 132.793 27.0642 132.236 27.8048C131.679 28.5454 130.879 29.0723 129.974 29.296C131.101 29.5124 132.111 30.1251 132.817 31.0208C133.523 31.9165 133.877 33.0346 133.813 34.1683C133.889 35.6558 133.382 37.115 132.397 38.2421C131.665 38.8778 130.814 39.3646 129.892 39.6744C128.97 39.9842 127.996 40.111 127.024 40.0475C124.894 40.0475 122.225 39.978 120.867 39.897V19.968L120.902 19.9333ZM126.673 23.1391C126.064 23.1391 125.315 23.1391 124.578 23.1391V27.8957H126.673C127.389 27.937 128.092 27.6956 128.628 27.2244C128.848 26.9994 129.019 26.7326 129.132 26.4402C129.244 26.1478 129.296 25.8358 129.283 25.5232C129.314 25.2116 129.275 24.8972 129.168 24.6024C129.061 24.3077 128.89 24.0401 128.666 23.8187C128.442 23.5974 128.171 23.4278 127.873 23.3223C127.575 23.2168 127.257 23.1779 126.942 23.2085H126.673V23.1391ZM126.743 36.5987H126.907C127.321 36.6459 127.741 36.6006 128.135 36.466C128.53 36.3315 128.888 36.1111 129.185 35.8212C129.481 35.5312 129.708 35.1792 129.849 34.791C129.99 34.4027 130.04 33.9882 129.997 33.5781C129.988 32.8725 129.697 32.199 129.189 31.7032C128.89 31.4226 128.537 31.2043 128.151 31.0611C127.765 30.918 127.354 30.853 126.942 30.87H124.601V36.5755H126.766" fill="#B1B1B1"/>
</svg>
