<svg width="184" height="46" viewBox="0 0 184 46" fill="none" xmlns="http://www.w3.org/2000/svg">
<path fill-rule="evenodd" clip-rule="evenodd" d="M6.95326 8.33426C17.4851 7.39271 29.7922 7.36418 40.3241 8.33426C36.3544 3.56945 30.5213 0.573608 24.0402 0.573608C17.5321 0.573608 10.95 3.56945 6.95326 8.33426Z" fill="#B1B1B1"/>
<path fill-rule="evenodd" clip-rule="evenodd" d="M40.3383 37.8247C29.7843 38.6256 17.22 38.6809 6.19141 37.8247C10.3237 42.575 17.2004 45.5854 24.0409 45.5854C30.8535 45.5854 36.206 42.575 40.3383 37.8247Z" fill="#B1B1B1"/>
<path fill-rule="evenodd" clip-rule="evenodd" d="M1.48336 17.8508C16.1338 17.6071 30.3936 17.5529 45.0441 17.8508C45.5185 19.611 45.7696 21.4794 45.7696 23.402C45.7696 25.0538 45.5743 26.6786 45.2115 28.2492C30.4215 28.6554 15.8269 28.547 1.31593 28.2221C0.953152 26.6786 0.757812 25.0538 0.757812 23.3749C0.757812 21.4794 1.00896 19.611 1.48336 17.8508Z" fill="#B1B1B1"/>
<path d="M176.107 16.3384C176.073 16.3384 176.039 16.37 176.039 16.4015V16.9691C176.039 17.0007 176.073 17.0322 176.107 17.0322H177.224V20.5642C177.224 20.5958 177.258 20.6273 177.292 20.6273H177.901C177.935 20.6273 177.969 20.5958 177.969 20.5642V17.0007H179.086C179.12 17.0007 179.154 16.9691 179.154 16.9376V16.37C179.154 16.3384 179.12 16.3069 179.086 16.3069" fill="#B1B1B1"/>
<path d="M130.129 11.0399C130.129 12.1752 131.077 13.0582 132.33 13.0582C133.548 13.0582 134.53 12.1752 134.53 11.0399C134.53 9.90461 133.548 9.02161 132.33 9.02161C131.077 9.02161 130.129 9.90461 130.129 11.0399Z" fill="#B1B1B1"/>
<path d="M141.573 17.726L141.438 17.7891L141.167 17.0637C141.065 16.8115 140.828 16.6538 140.557 16.6538H139.135C138.763 16.6538 138.492 16.9376 138.492 17.2845V34.0931C138.492 34.44 138.797 34.7238 139.135 34.7238H141.675C142.047 34.7238 142.352 34.44 142.352 34.0931V20.4696L142.419 20.4381C143.469 19.9335 144.518 19.6182 146.55 19.6182C149.021 19.6182 149.495 20.4696 149.495 21.8572V34.0616C149.495 34.4085 149.8 34.6608 150.139 34.6608H152.678C153.05 34.6608 153.321 34.377 153.321 34.0616V21.9833C153.321 18.2936 150.985 16.3069 146.516 16.3069C144.857 16.3069 143.198 16.7799 141.573 17.726Z" fill="#B1B1B1"/>
<path d="M134.192 17.2527C134.192 16.9058 133.887 16.6219 133.548 16.6219H131.077C130.704 16.6219 130.434 16.9058 130.434 17.2527V34.0613C130.434 34.4082 130.738 34.6605 131.077 34.6605H133.514C133.887 34.6605 134.192 34.3767 134.192 34.0613" fill="#B1B1B1"/>
<path d="M125.796 8.86424C125.796 8.51734 125.491 8.23352 125.119 8.23352H122.681C122.309 8.23352 122.004 8.51734 122.004 8.86424V34.0614C122.004 34.4083 122.309 34.6606 122.681 34.6606H125.119C125.491 34.6606 125.796 34.3768 125.796 34.0614" fill="#B1B1B1"/>
<path d="M87.978 24.0962C88.1812 21.7941 88.8244 19.6497 92.3115 19.6497C95.3247 19.6497 95.9002 21.1634 95.9679 24.0962V24.2224H87.978V24.0962ZM84.0508 25.673C84.0508 27.9752 84.0508 35.0392 92.2777 35.0392C94.7491 35.0392 96.3742 34.9131 98.5071 34.2508C98.7441 34.1877 98.9134 33.9354 98.9134 33.6832V31.791C98.9134 31.5703 98.8118 31.381 98.6087 31.2864C98.4394 31.1603 98.2024 31.1918 97.9993 31.2234C96.1372 31.5703 94.6814 31.6964 92.3115 31.6964C88.8921 31.6964 88.215 29.6781 87.978 27.4706V27.3444H99.1842C99.5566 27.3444 99.8613 27.0606 99.8613 26.7453V25.673C99.8613 21.1319 99.2858 16.3069 92.3454 16.3069C84.0508 16.3069 84.0508 23.3709 84.0508 25.673Z" fill="#B1B1B1"/>
<path d="M106.701 24.0962C106.87 21.7941 107.547 19.6497 111.034 19.6497C114.013 19.6497 114.623 21.1634 114.691 24.0962V24.2224H106.701V24.0962ZM102.773 25.673C102.773 27.9752 102.773 35.0392 111.034 35.0392C113.506 35.0392 115.131 34.9131 117.264 34.2508C117.501 34.1877 117.67 33.9354 117.67 33.6832V31.791C117.67 31.5703 117.568 31.381 117.365 31.2864C117.196 31.1603 116.959 31.1918 116.756 31.2234C114.894 31.5703 113.438 31.6964 111.068 31.6964C107.649 31.6964 106.972 29.6781 106.735 27.4706V27.3444H117.873C118.245 27.3444 118.516 27.0606 118.516 26.7453V25.673C118.516 21.1319 117.941 16.3069 111 16.3069C102.773 16.3069 102.773 23.3709 102.773 25.673Z" fill="#B1B1B1"/>
<path d="M160.53 24.0955C160.699 21.7933 161.376 19.6489 164.864 19.6489C167.877 19.6489 168.452 21.1626 168.52 24.0955V24.2216H160.53V24.0955ZM156.637 25.6723C156.637 27.9744 156.637 35.0384 164.864 35.0384C167.335 35.0384 168.96 34.9123 171.093 34.25C171.33 34.187 171.465 33.9347 171.465 33.6824V31.7902C171.465 31.5695 171.364 31.3803 171.161 31.2856C170.958 31.1595 170.754 31.191 170.551 31.2226C168.689 31.5695 167.234 31.6956 164.864 31.6956C161.444 31.6956 160.767 29.6773 160.53 27.4698V27.3752H171.736C172.109 27.3752 172.38 27.0914 172.38 26.776V25.7038C172.38 21.1626 171.804 16.3376 164.864 16.3376C156.637 16.3061 156.637 23.3701 156.637 25.6723Z" fill="#B1B1B1"/>
<path d="M71.8637 22.7089C75.757 22.7089 77.1451 23.8126 77.1451 26.9347C77.1451 29.016 76.5018 31.1605 71.7959 31.1605H66.1082V22.7089H71.8637ZM71.559 11.7028C75.6555 11.7028 76.231 13.5319 76.231 15.4871C76.231 17.9785 74.8091 19.2084 71.8637 19.2084H66.1082V11.7028H71.559ZM62.8242 8.17082C62.418 8.17082 62.1133 8.45464 62.1133 8.83307V34.0303C62.1133 34.4087 62.418 34.6925 62.8242 34.6925H71.6267C77.9238 34.6925 81.4109 31.9489 81.4109 26.9347C81.4109 24.2226 79.989 21.8889 77.6529 20.7221C77.6529 20.7221 77.5852 20.6906 77.5514 20.659C77.5852 20.6275 77.6529 20.596 77.6529 20.596C79.4811 19.3661 80.5306 17.5054 80.5306 15.4556C80.5306 12.712 79.3457 8.13928 71.4235 8.13928" fill="#B1B1B1"/>
<path d="M183.181 16.3383C183.147 16.3383 183.147 16.3698 183.113 16.3698C183.113 16.3698 181.962 18.8296 181.861 19.0819C181.759 18.8296 180.608 16.3698 180.608 16.3698C180.608 16.3383 180.574 16.3383 180.54 16.3383H179.829C179.796 16.3383 179.762 16.3698 179.762 16.4013V20.5325C179.762 20.5641 179.796 20.5956 179.829 20.5956H180.439C180.439 20.5956 180.473 20.5956 180.473 20.5641L180.507 20.5325C180.507 20.5325 180.473 18.1358 180.473 17.6312C180.676 18.0727 181.59 20.028 181.59 20.028C181.59 20.0595 181.624 20.0595 181.658 20.0595H182.132C182.165 20.0595 182.165 20.0595 182.199 20.028C182.199 20.028 183.113 18.1043 183.317 17.6312C183.317 18.1358 183.283 20.5325 183.283 20.5325C183.283 20.5641 183.283 20.5641 183.283 20.5641L183.317 20.5956H183.926C183.96 20.5956 183.994 20.5641 183.994 20.5325V16.4013C183.994 16.3698 183.96 16.3383 183.926 16.3383" fill="#B1B1B1"/>
</svg>
