<svg width="201" height="46" viewBox="0 0 201 46" fill="none" xmlns="http://www.w3.org/2000/svg">
<path d="M40.7476 16.4695V7.00603H30.9593L24.1284 0.387817L17.2975 6.91622H7.40506V16.3695L0.480469 22.9878L7.50928 29.606V39.0694H17.2975L24.1284 45.6876L30.9593 39.0694H40.8412V29.7059L47.7764 23.0877L40.7476 16.4695ZM6.52044 24.9748L4.93788 23.4678C4.73998 23.278 4.63575 22.8986 4.93788 22.6089L6.61411 21.002C6.81201 20.8123 7.20781 21.002 7.11414 21.2916L7.20782 24.6959C7.20782 25.0754 6.81201 25.1652 6.52044 24.9754V24.9748ZM34.9055 9.75197H37.186C37.4776 9.75197 37.8734 9.94169 37.7797 10.3211V12.5871C37.7797 12.8767 37.3839 12.9665 37.2797 12.7768L34.7076 10.3211C34.416 10.1314 34.6139 9.75197 34.9055 9.75197ZM22.2437 6.2484L23.8263 4.74072C24.1284 4.551 24.5242 4.45108 24.7221 4.74072L26.3984 6.2484C26.5963 6.53804 26.3984 6.81757 26.1068 6.81757H22.5459C22.1501 6.81757 22.0564 6.43812 22.2437 6.2484ZM10.175 12.4973V10.4109C10.2793 10.0315 10.4772 9.75197 10.873 9.75197H13.1429C13.5387 9.75197 13.6429 10.1314 13.445 10.3211L10.873 12.7768C10.5708 12.9665 10.175 12.7768 10.175 12.4973ZM13.3408 36.4253H11.0709C10.7687 36.4253 10.4772 36.2356 10.4772 35.8561L10.3729 33.68C10.3729 33.3005 10.7687 33.2006 10.9666 33.4005L13.6429 35.8561C13.8408 36.0458 13.6429 36.4253 13.3408 36.4253ZM26.1068 39.7296L24.5242 41.2468C24.2221 41.5263 23.8263 41.5263 23.6284 41.2468L21.9522 39.7296C21.7543 39.4501 21.9522 39.1706 22.1501 39.1706H25.8047C26.2005 39.1706 26.3047 39.5399 26.1068 39.7296ZM27.8872 35.9465H19.9738C18.8807 36.0465 17.9954 35.7568 17.2038 34.9081L11.4667 29.4276C10.5715 28.6687 10.1757 27.7207 10.2799 26.4926V19.0156C10.2799 17.9771 10.6757 17.0292 11.3631 16.3702L17.4024 10.6C17.9961 10.0309 18.7871 9.75134 19.8702 9.75134H27.9816C29.0747 9.65141 29.9599 9.94106 30.6579 10.7L36.4993 16.2804C37.2803 16.9394 37.6761 17.7874 37.6761 18.8258V26.9618C37.7804 28.0003 37.3846 28.8585 36.4993 29.4276L30.9593 34.8183C30.0635 35.667 29.0747 36.0465 27.8872 35.9465ZM37.8734 35.5671C37.7797 35.8567 37.5818 36.2362 37.186 36.2362H34.9055C34.5097 36.2362 34.416 35.8567 34.6139 35.667L37.186 33.2012C37.4776 32.9217 37.8734 33.1114 37.8734 33.4011V35.5671ZM41.4448 24.9754C41.2469 25.1652 40.8406 24.9754 40.9448 24.7857V21.2916C40.8406 20.9122 41.3406 20.8123 41.5385 21.002L43.1211 22.5191C43.319 22.7987 43.4127 23.1781 43.1211 23.3678L41.4448 24.9748V24.9754Z" fill="#B1B1B1"/>
<path d="M34.4148 28.5787L24.4188 11.828C24.023 11.169 23.4293 11.169 22.9405 11.828L13.246 28.4788C13.0481 28.948 13.246 29.5172 14.1313 29.5172H33.6239C34.3113 29.5172 34.7071 29.2377 34.4155 28.5787H34.4148ZM31.7498 27.5308H17.4949C16.9012 27.5308 16.7033 27.0615 16.9012 26.6821L24.0237 14.5733C24.3258 14.104 24.8153 14.1938 25.1168 14.5733L32.3329 26.7719C32.5308 27.2512 32.2392 27.5308 31.7498 27.5308Z" fill="#B1B1B1"/>
<path d="M30.7527 25.6435L25.5149 16.6595C25.317 16.3698 24.9212 16.3698 24.7233 16.6595L19.4749 25.5442C19.3812 25.8339 19.4749 26.1134 19.8707 26.2032H30.3562C30.752 26.1134 30.9499 26.0135 30.752 25.6442L30.7527 25.6435ZM28.4821 24.0271H23.0365C22.8386 24.0271 22.7449 23.9373 22.8386 23.7476L25.5149 19.2157C25.7128 19.0159 25.8065 19.0159 25.9107 19.2157L28.6807 23.7476C28.7849 23.9373 28.6807 24.0271 28.4828 24.0271" fill="#B1B1B1"/>
<path d="M182.812 15.3983V20.417C182.354 17.7385 180.542 15.3983 176.919 15.3983H170.397V24.6586H163.874V23.2785H168.68V20.0701H163.874V18.7723H169.672V15.3988H159.345V18.7723C158.801 16.5235 157.075 15.3988 154.176 15.3988H147.025V23.882C142.953 25.4451 140.321 24.9239 140.235 21.8892C140.235 18.7717 142.581 17.9951 146.3 19.037L145.937 15.5726C141.408 14.7039 137.87 15.5726 135.791 19.037C135.429 17.2179 134.342 15.4811 131.081 15.3988H123.834V24.577H117.311V23.2791H122.108V20.0707H117.311V18.6906H123.109V15.3994H95.7421V22.3288L92.2141 15.3994H87.0461V24.5775H80.2566V23.2797H85.0532V20.1622H80.2566V18.7729H85.9587V15.4817H75.7271V23.8826C72.0083 25.3542 69.0234 25.0982 69.0234 21.7253C69.0234 18.8638 71.827 17.9957 75.1834 19.1198L74.7255 15.5732C68.661 14.3576 64.4939 16.615 64.3984 21.9813C64.3984 26.4881 69.4717 29.2581 75.7265 27.5213V27.8688H91.1262V21.3784L94.5683 27.8688H99.9085V18.5991H104.171V27.8688H108.882V18.6906H112.782V27.8688H128.182V18.6906H129.631C130.441 18.6906 131.08 18.9466 131.08 19.8153C130.985 20.8485 130.079 21.1132 128.543 20.8485L130.622 27.8693H135.514L133.435 22.6768C134.427 22.4116 135.152 21.8081 135.514 20.94C135.514 28.0431 141.951 28.9112 147.023 27.4396V27.8693H151.457V18.6912H152.907C154.003 18.6912 154.27 19.2947 154.27 19.8159C154.366 20.6846 153.278 21.1137 151.733 20.8491L153.908 27.8699H158.523L156.54 22.6774C157.989 22.3299 158.895 21.6355 159.343 20.4194V27.8699H177.738C180.274 27.8699 182.172 26.1424 182.811 23.2809V27.8699H187.521V18.6918H192.137V27.8699H196.848V18.6918H200.481V15.4006H182.811L182.812 15.3983ZM176.289 24.5764H174.84V18.9455H176.471C177.377 18.9455 177.92 19.8964 177.92 21.7247C178.006 23.7083 177.376 24.577 176.289 24.577" fill="#B1B1B1"/>
</svg>
