<svg width="201" height="38" viewBox="0 0 201 38" fill="none" xmlns="http://www.w3.org/2000/svg">
<path d="M22.9372 1.91328L26.0937 0.573608V11.5886C26.0937 11.8863 26.0937 11.8863 26.3945 11.8863C26.5448 11.8863 26.8452 11.4398 27.146 10.9932C27.146 10.8444 27.2962 10.8444 27.2962 10.6955C28.6489 8.6116 30.4526 8.01619 31.9557 8.01619C34.8116 8.16505 35.8638 10.1001 35.8638 12.7794V27.3669H32.7073V12.9283C32.7073 11.5886 32.2563 10.6955 30.9037 10.6955C30.1522 10.6955 29.5508 10.9932 28.7992 11.5886C27.8974 12.3329 26.9955 13.6726 26.244 14.7145V27.5158H23.0875L22.9372 1.91328ZM14.2193 8.76045C13.9187 6.22997 12.7162 3.9972 9.86033 3.9972C7.30516 3.9972 6.10269 5.93227 5.50145 7.42079C4.5996 9.80241 4.44929 13.3749 4.44929 13.6726C4.44929 19.4778 5.50145 24.9853 9.86033 24.9853C11.9647 24.9853 13.0168 23.4968 13.3174 23.0502C14.069 21.8594 14.2193 20.3709 14.2193 19.4778L17.8267 20.0732C17.6764 22.1571 16.9248 24.3899 15.4218 26.0273C13.1671 28.26 10.6119 28.26 9.55972 28.26C7.45547 28.26 0.992188 27.2181 0.992188 14.5657C0.992188 8.46275 2.49528 0.871312 10.0106 0.871312C11.664 0.871312 13.9187 1.31787 15.4218 2.95524C17.2255 4.74146 17.5261 6.82538 17.8267 8.16505L14.2193 8.76045ZM53.45 11.8863C52.5482 10.1001 50.7445 8.16505 47.1369 8.16505C43.2289 8.16505 39.9222 11.1421 39.9222 17.6916C39.9222 20.9663 40.5233 23.4968 41.8761 25.1341C42.6277 26.0273 43.9804 27.6646 47.2872 27.6646C51.9469 27.6646 54.8027 23.6456 54.8027 17.9893C54.8027 16.3519 54.3517 13.5237 53.45 11.8863ZM47.4377 24.9853C43.68 24.9853 43.2289 19.6266 43.2289 18.287C43.2289 15.4588 43.8303 10.8444 47.4377 10.8444C47.8885 10.8444 48.3394 10.8444 48.7903 11.1421C49.6922 11.4398 50.4439 12.3329 50.8946 13.5237C51.3456 14.7145 51.496 16.6496 51.496 17.9893C51.496 20.6686 50.8946 24.9853 47.4377 24.9853ZM67.8795 13.8214C67.5789 12.9283 66.8275 10.8444 64.7232 10.8444C62.4686 10.8444 60.815 13.226 60.815 17.0962C60.815 18.7335 60.9655 20.6686 61.4163 22.0083C61.8672 23.3479 62.9193 24.9853 65.0238 24.9853C66.9778 24.9853 67.8795 23.3479 68.1802 21.4129L71.0362 22.7525C70.4348 25.8784 68.1802 27.8135 65.0238 27.8135C57.809 27.8135 57.6585 19.4778 57.6585 18.4358C57.6585 16.6496 57.6585 13.6726 59.6125 10.9932C61.2659 8.76045 63.3703 8.3139 64.5727 8.3139C65.3243 8.3139 67.8795 8.46275 69.3826 10.5467C70.1342 11.4398 70.1342 11.7375 70.5851 12.6306L67.8795 13.8214ZM87.2695 11.8863C86.3677 10.1001 84.5638 8.16505 81.1067 8.16505C77.1987 8.16505 73.8919 11.1421 73.8919 17.6916C73.8919 20.9663 74.4931 23.4968 75.8459 25.1341C76.5974 26.0273 77.9502 27.6646 81.2572 27.6646C85.9166 27.6646 88.7726 23.6456 88.7726 17.9893C88.6223 16.3519 88.1712 13.5237 87.2695 11.8863ZM81.2572 24.9853C77.4995 24.9853 77.0485 19.6266 77.0485 18.287C77.0485 15.4588 77.6496 10.8444 81.2572 10.8444C81.7079 10.8444 82.1589 10.8444 82.6098 11.1421C83.5117 11.4398 84.2633 12.3329 84.7141 13.5237C85.165 14.7145 85.3155 16.6496 85.3155 17.9893C85.3155 20.6686 84.7141 24.9853 81.2572 24.9853ZM93.5825 1.91328L96.2879 0.72246H96.7388V27.3669H93.5825V1.91328ZM107.26 1.76442H103.052V5.18801H107.26V1.76442ZM106.81 8.76045H103.653V27.5158H106.81V8.76045ZM111.619 10.249H114.175V6.08112C114.175 4.74146 114.175 3.40179 115.527 2.06213C116.73 0.871312 118.233 0.72246 119.285 0.72246C120.037 0.72246 121.089 0.72246 121.991 1.16902V3.84835C121.54 3.55064 120.788 3.25294 119.886 3.25294C117.481 3.25294 117.481 5.18801 117.481 6.08112V9.95127H120.788V12.0352H117.481V27.0692H114.175V12.3329H111.619V10.249ZM126.951 18.4358H138.074V16.6496C137.923 12.0352 135.519 8.3139 131.009 8.3139C129.356 8.3139 123.644 9.05816 123.644 18.5847C123.644 24.3899 126.65 27.9623 131.009 27.9623C134.466 27.9623 135.819 26.6227 137.172 25.5807L135.368 23.7945C134.767 24.3899 133.715 25.283 131.61 25.283C128.153 25.4319 126.801 22.6037 126.951 18.4358ZM131.009 10.5467C133.564 10.5467 134.767 12.9283 134.767 16.2031H126.951V16.0542C126.951 15.3099 127.101 14.268 127.552 12.9283C128.304 11.4398 129.506 10.5467 131.009 10.5467Z" fill="#B1B1B1"/>
<path d="M200.486 13.2793C200.486 6.66272 195.057 1.24915 188.421 1.24915C183.897 1.24915 179.975 3.65518 177.864 7.26423C175.753 3.65518 171.832 1.24915 167.307 1.24915C160.672 1.24915 155.242 6.66272 155.242 13.2793C155.242 15.3846 155.845 17.3395 156.75 18.9937C161.878 29.0689 177.864 37.0389 177.864 37.0389C177.864 37.0389 195.057 28.4674 199.43 17.941C200.184 16.5876 200.486 14.9335 200.486 13.2793Z" fill="#B1B1B1"/>
<path d="M189.936 20.7995L191.115 21.925C190.378 22.7289 189.494 23.5328 187.283 23.5328C184.63 23.5328 182.714 21.1211 182.714 17.1016C182.714 10.6703 186.251 10.0272 187.283 10.0272C190.084 10.0272 191.558 12.5997 191.705 15.8153V16.9408H184.777C184.777 19.8348 185.514 21.7642 187.578 21.7642C188.904 21.925 189.494 21.2819 189.936 20.7995ZM184.777 15.4938H189.641C189.641 13.2428 188.904 11.635 187.283 11.635C186.399 11.635 185.514 12.2782 185.22 13.2428C184.777 14.0467 184.777 14.8506 184.777 15.4938ZM177.997 10.188C176.818 10.188 176.081 10.6703 174.46 12.5997L174.017 13.0821H173.87C173.723 11.9566 173.575 10.3488 171.659 10.3488C170.775 10.3488 170.185 10.8311 169.743 11.1527C169.153 11.635 168.859 11.9566 168.122 13.0821C167.974 13.2428 167.827 13.5644 167.827 13.5644L167.679 13.2428V10.188L165.911 10.9919V23.372H167.827V15.1722C168.859 13.5644 169.006 13.4036 169.301 13.0821C170.038 12.2781 170.48 12.1174 170.922 12.1174C171.364 12.1174 171.954 12.2782 171.954 14.0467V23.5328H173.87V15.0114C175.197 13.2428 175.934 12.1174 176.818 12.1174C177.997 12.1174 177.997 13.4036 177.997 14.3683V23.5328H179.913V14.0467C179.913 12.1174 179.766 11.635 179.471 11.1527C179.176 10.3488 178.292 10.188 177.997 10.188ZM163.7 21.1211C163.11 21.1211 162.668 21.6034 162.668 22.2466C162.668 22.8897 163.11 23.372 163.7 23.372C164.289 23.372 164.732 22.8897 164.732 22.2466C164.732 21.6034 164.289 21.1211 163.7 21.1211Z" fill="white"/>
</svg>
