<svg width="203" height="34" viewBox="0 0 203 34" fill="none" xmlns="http://www.w3.org/2000/svg">
<path d="M54.5269 9.64824V12.2874V14.4516H62.0069C62.3992 15.9174 62.3992 17.4591 62.0069 18.925H54.5536V28.3733C52.7298 28.665 50.8706 28.665 49.0469 28.3733V5.16163L49.2869 4.9373H64.1269C64.2893 5.63823 64.3654 6.35602 64.3536 7.07504C64.3836 7.42367 64.3359 7.77457 64.2138 8.10292C64.0917 8.43128 63.8981 8.72908 63.6469 8.97525C62.9999 9.44295 62.2059 9.66748 61.4069 9.60865H54.5269V9.64824ZM200.407 21.6037L201.274 24.111C201.508 25.224 202.091 26.2353 202.941 27.0009C202.495 27.5271 201.938 27.9501 201.309 28.2397C200.68 28.5293 199.994 28.6785 199.301 28.6768C198.683 28.7202 198.071 28.537 197.581 28.1621C197.084 27.6291 196.723 26.9868 196.527 26.2883L195.501 23.3192C195.377 22.7793 195.094 22.2879 194.687 21.9072C194.345 21.6465 193.919 21.5154 193.487 21.5378C193.128 21.5183 192.767 21.5183 192.407 21.5378V28.3469C191.528 28.5067 190.635 28.5818 189.741 28.5712C188.846 28.5808 187.954 28.5057 187.074 28.3469V3.27461L187.314 3.03709H189.407C189.82 2.99311 190.236 3.03497 190.631 3.15996C191.026 3.28495 191.391 3.49031 191.701 3.76286C192.197 4.50157 192.423 5.3865 192.341 6.27009V17.1699H192.901C193.106 17.1682 193.305 17.1074 193.476 16.9949C193.647 16.8824 193.78 16.7231 193.861 16.5365L195.741 13.0792C195.988 12.4844 196.413 11.9785 196.958 11.6295C197.504 11.2804 198.145 11.1048 198.794 11.1262C199.461 11.1262 200.469 11.1526 201.821 11.2054L202.021 11.4693L199.354 16.5761C198.97 17.4054 198.366 18.1166 197.607 18.6347C198.274 18.8813 198.874 19.2778 199.36 19.7931C199.846 20.3083 200.205 20.9281 200.407 21.6037ZM183.074 17.038V24.0714C182.987 25.2569 183.281 26.4394 183.914 27.4495C183.052 28.22 181.928 28.6396 180.767 28.624C180.324 28.6783 179.873 28.6343 179.449 28.495C179.025 28.3558 178.637 28.1249 178.314 27.819C177.814 27.081 177.579 26.1979 177.647 25.3118V18.054C177.678 17.4696 177.568 16.8862 177.327 16.3518C177.199 16.1577 177.019 16.003 176.807 15.905C176.595 15.807 176.36 15.7698 176.127 15.7975C175.716 15.8115 175.311 15.9104 174.941 16.0878C174.444 16.2922 173.992 16.5877 173.607 16.9588V28.426C173.207 28.5052 172.767 28.5448 172.274 28.5976C171.781 28.6504 171.314 28.5976 170.847 28.5976C170.381 28.5976 169.887 28.5976 169.421 28.5976C168.954 28.5976 168.541 28.5052 168.087 28.426V11.2713L168.327 11.047H170.367C171.018 10.9913 171.667 11.1646 172.201 11.5363C172.736 11.9081 173.12 12.4544 173.287 13.0792C174.577 11.8162 176.289 11.0651 178.101 10.9678C178.807 10.9298 179.512 11.0597 180.156 11.3467C180.801 11.6337 181.367 12.0694 181.807 12.6173C182.698 13.9182 183.142 15.4681 183.074 17.038ZM154.594 23.372C154.585 23.6083 154.63 23.8435 154.727 24.0598C154.823 24.2761 154.968 24.4679 155.15 24.6205C155.333 24.7731 155.548 24.8826 155.78 24.9406C156.011 24.9987 156.253 25.0038 156.487 24.9555C157.304 24.8836 158.069 24.5284 158.647 23.9526V21.2343H157.487H156.78C156.487 21.196 156.188 21.2248 155.907 21.3183C155.626 21.4118 155.37 21.5676 155.159 21.7738C154.948 21.98 154.787 22.2312 154.689 22.5082C154.591 22.7852 154.559 23.0806 154.594 23.372ZM165.074 26.0112C164.944 26.5562 164.719 27.0744 164.407 27.5419C164.168 28.0034 163.832 28.4085 163.421 28.7295C162.694 28.7505 161.974 28.5984 161.319 28.286C160.665 27.9737 160.096 27.5103 159.66 26.9349C158.348 28.194 156.595 28.9031 154.767 28.9143C153.97 28.928 153.178 28.7891 152.434 28.5052C151.785 28.2352 151.199 27.8354 150.714 27.3308C150.266 26.8526 149.917 26.2922 149.687 25.6813C149.461 25.0497 149.344 24.3851 149.34 23.7151C149.316 22.8055 149.503 21.9026 149.887 21.0759C150.229 20.3551 150.736 19.7226 151.367 19.2285C152.017 18.726 152.76 18.3539 153.554 18.1332C154.416 17.8611 155.316 17.7275 156.22 17.7373C156.767 17.7373 157.234 17.7373 157.62 17.7373C158.007 17.7373 158.38 17.7373 158.674 17.7373V17.0775C158.717 16.7776 158.689 16.4718 158.591 16.1847C158.493 15.8976 158.329 15.6371 158.111 15.4242C157.893 15.2112 157.628 15.0517 157.337 14.9585C157.046 14.8652 156.736 14.8407 156.434 14.887C154.685 15.0394 152.964 15.4165 151.314 16.0087C150.506 14.9269 150.041 13.6314 149.98 12.2874C150.58 12.0545 151.195 11.8605 151.82 11.7068C152.514 11.5089 153.154 11.3637 153.94 11.2186C154.641 11.0772 155.349 10.9715 156.06 10.9019C156.679 10.8178 157.303 10.7781 157.927 10.7831C158.718 10.7744 159.506 10.8902 160.26 11.1262C160.986 11.3294 161.659 11.685 162.234 12.1687C162.815 12.6549 163.271 13.2697 163.567 13.9633C163.927 14.7968 164.104 15.6963 164.087 16.6025V23.5567C164.018 24.0079 164.073 24.4692 164.247 24.8919C164.42 25.3147 164.706 25.6831 165.074 25.9584V26.0112ZM137.98 18.0936H135.114V24.784C135.7 24.784 136.447 24.784 137.127 24.784C137.829 24.8038 138.531 24.7463 139.22 24.6124C139.859 24.4631 140.43 24.1108 140.847 23.6095C141.306 22.9625 141.531 22.1817 141.487 21.3926C141.502 20.5471 141.203 19.7255 140.647 19.0833C140.306 18.7272 139.887 18.4529 139.423 18.2813C138.958 18.1098 138.46 18.0456 137.967 18.0936H137.98ZM135.127 8.64535V14.1744H137.607C138.032 14.22 138.462 14.1714 138.865 14.0322C139.269 13.893 139.636 13.6666 139.94 13.3695C140.391 12.813 140.627 12.1162 140.607 11.4033C140.637 10.6885 140.389 9.98962 139.914 9.4503C139.608 9.16521 139.243 8.94823 138.846 8.81395C138.448 8.67966 138.025 8.63118 137.607 8.67174H136.274C135.754 8.67174 135.407 8.67174 135.114 8.65855L135.127 8.64535ZM129.86 4.89771L134.66 4.80534C135.994 4.80534 137.047 4.80534 137.86 4.80534C139.96 4.68489 142.043 5.23038 143.807 6.36246C144.533 6.9005 145.111 7.60994 145.488 8.42596C145.865 9.24198 146.03 10.1386 145.967 11.0338C145.976 12.0406 145.674 13.026 145.1 13.8577C144.587 14.6794 143.834 15.328 142.94 15.7184C143.537 15.9154 144.096 16.2098 144.594 16.5893C145.106 16.9926 145.555 17.4684 145.927 18.0013C146.298 18.5449 146.594 19.1352 146.807 19.7563C147.023 20.385 147.132 21.0452 147.127 21.7093C147.215 22.7055 147.054 23.7078 146.658 24.6281C146.263 25.5484 145.646 26.3586 144.86 26.9877C142.953 28.2214 140.696 28.818 138.42 28.69H135.02L129.9 28.5976L129.607 28.2413V5.16163L129.86 4.89771ZM116.274 17.8825H120.807V17.513C120.858 16.7754 120.671 16.0409 120.274 15.4149C120.091 15.1406 119.838 14.9193 119.54 14.7732C119.243 14.6272 118.912 14.5618 118.58 14.5835C118.264 14.5571 117.946 14.6154 117.659 14.7524C117.373 14.8893 117.129 15.0999 116.954 15.3621C116.505 16.1274 116.27 16.9974 116.274 17.8825ZM125.327 21.6037H116.274C116.273 22.4543 116.549 23.2825 117.06 23.9658C117.371 24.2728 117.745 24.5087 118.158 24.6569C118.57 24.8051 119.01 24.862 119.447 24.8236C120.093 24.8131 120.736 24.7379 121.367 24.5992C122.221 24.4011 123.059 24.1409 123.874 23.8207C124.68 24.6976 125.18 25.8079 125.3 26.9877C123.295 28.3316 120.908 29.0065 118.487 28.9143C117.237 28.9557 115.994 28.7213 114.847 28.2281C113.894 27.7873 113.068 27.1156 112.447 26.2751C111.797 25.4083 111.343 24.4139 111.114 23.3588C110.836 22.1556 110.702 20.9244 110.714 19.6903C110.7 18.4913 110.858 17.2964 111.18 16.1406C111.469 15.1178 111.954 14.1592 112.607 13.3167C113.254 12.5043 114.091 11.861 115.047 11.4429C116.078 10.9921 117.189 10.7494 118.315 10.729C119.441 10.7087 120.561 10.911 121.607 11.3241C122.459 11.6655 123.231 12.1777 123.874 12.8285C124.514 13.4808 125.009 14.2584 125.327 15.1114C125.658 16.0487 125.824 17.0349 125.82 18.0276C125.824 19.2384 125.649 20.4432 125.3 21.6037H125.327ZM109.194 11.2581C109.342 11.881 109.418 12.5185 109.42 13.1584C109.419 13.7896 109.343 14.4185 109.194 15.0322L105.06 14.953V22.8706C105.009 23.0829 105.011 23.3045 105.067 23.5157C105.123 23.7269 105.232 23.921 105.382 24.0805C105.533 24.2401 105.721 24.3601 105.93 24.4299C106.14 24.4997 106.363 24.5171 106.58 24.4805H108.527C108.823 25.2067 108.981 25.9805 108.994 26.7633C109.017 27.2648 108.967 27.7669 108.847 28.2545C107.283 28.4681 105.706 28.5827 104.127 28.5976C101.22 28.5976 99.7803 27.0141 99.7803 23.8339V15.0058H97.1137C96.9417 14.4051 96.8608 13.7825 96.8737 13.1584C96.8652 12.5084 96.9459 11.8602 97.1137 11.2317L99.7803 11.3109V9.33154C99.6958 8.45232 99.9323 7.57222 100.447 6.8507C100.753 6.58024 101.113 6.37598 101.503 6.251C101.893 6.12603 102.306 6.08308 102.714 6.12493H104.834L105.074 6.34926V11.3373L109.194 11.2581ZM82.9403 13.7654C83.0749 13.2263 83.2907 12.7103 83.5803 12.2346C83.842 11.7807 84.175 11.3709 84.567 11.0206C85.5358 11.0528 86.4732 11.3683 87.261 11.9272C88.0489 12.4862 88.6518 13.2635 88.9936 14.1612C89.288 13.2534 89.8693 12.4632 90.652 11.9072C91.4346 11.3512 92.3771 11.0589 93.3403 11.0734C94.1119 11.0835 94.8803 11.1719 95.6337 11.3373C95.612 12.1936 95.4866 13.0442 95.2603 13.8709C95.0544 14.7407 94.722 15.5764 94.2737 16.3518C93.6994 16.1642 93.1036 16.0489 92.5003 16.0087C91.9039 16.0125 91.3197 16.1766 90.8101 16.4833C90.3005 16.7901 89.8847 17.2281 89.607 17.7505V28.4128C88.7272 28.5705 87.8344 28.6456 86.9403 28.6372C86.0464 28.6415 85.154 28.5664 84.2736 28.4128V17.3415C84.345 16.684 84.2618 16.0191 84.0305 15.3988C83.7992 14.7784 83.4261 14.2194 82.9403 13.7654ZM72.8336 14.7815C72.3858 14.7621 71.9444 14.8923 71.5803 15.1509C71.2515 15.4053 70.9982 15.7426 70.8469 16.1274C70.6411 16.5842 70.5063 17.0691 70.4469 17.5658C70.377 18.1393 70.3458 18.7168 70.3536 19.2945C70.3536 20.271 70.3803 21.0979 70.4336 21.7753C70.4729 22.3749 70.5987 22.9659 70.8069 23.5303C70.9388 23.9367 71.1837 24.298 71.5136 24.5728C71.8811 24.8222 72.3222 24.9429 72.7669 24.9159C73.2036 24.9524 73.64 24.8419 74.0053 24.6024C74.3707 24.3629 74.6437 24.0085 74.7803 23.5963C75.1516 22.3824 75.3183 21.1162 75.2736 19.8487C75.324 18.5722 75.1572 17.2964 74.7803 16.0747C74.6472 15.673 74.3816 15.3272 74.0262 15.0927C73.6708 14.8582 73.2461 14.7486 72.8203 14.7815H72.8336ZM78.3669 12.8153C79.2379 13.7671 79.9063 14.8827 80.3324 16.0956C80.7585 17.3085 80.9335 18.5938 80.847 19.8751C80.8569 21.1507 80.6634 22.42 80.2736 23.6359C79.9597 24.6804 79.4334 25.6503 78.7269 26.4862C78.0618 27.2689 77.2219 27.8878 76.2736 28.2941C75.1751 28.7402 73.9937 28.9516 72.8069 28.9143C71.6376 28.9336 70.4764 28.7181 69.3936 28.2809C68.4486 27.857 67.6106 27.2304 66.9403 26.4466C66.2261 25.6246 65.6865 24.6687 65.3536 23.6359C64.9958 22.4367 64.8205 21.1914 64.8336 19.9411C64.8205 18.682 64.9957 17.428 65.3536 16.2198C65.6653 15.1385 66.2062 14.1354 66.9403 13.2771C67.6085 12.4768 68.4582 11.8438 69.4203 11.4297C70.5075 10.9736 71.6796 10.7488 72.8603 10.7699C73.8669 10.7363 74.8703 10.8997 75.8129 11.2507C76.7556 11.6017 77.619 12.1334 78.3536 12.8153H78.3669Z" fill="#B1B1B1"/>
<path d="M32.6046 15.3223C32.5268 15.1488 32.3997 15.0015 32.2386 14.8984C32.0776 14.7952 31.8897 14.7408 31.6979 14.7417H28.8979C28.7704 14.7379 28.6434 14.7593 28.5244 14.8046C28.4054 14.8499 28.2966 14.9183 28.2046 15.0056C27.4038 15.7453 26.4581 16.3144 25.426 16.6776C24.3939 17.0408 23.2974 17.1903 22.2045 17.117C20.346 17.0761 18.576 16.3227 17.2677 15.0156C15.9594 13.7084 15.2149 11.9497 15.1912 10.1099C15.2088 8.75081 15.7703 7.45406 16.7526 6.50413C17.735 5.55419 19.0579 5.02863 20.4312 5.04272C21.0188 5.04961 21.5981 5.18163 22.1295 5.42983C22.661 5.67802 23.1322 6.03656 23.5112 6.48107C23.6858 6.69106 23.8336 6.92153 23.9512 7.16726C24.0254 7.38107 24.0254 7.61325 23.9512 7.82706C23.8495 8.07872 23.6561 8.28345 23.4092 8.40074C23.1623 8.51803 22.8799 8.53934 22.6179 8.46046C22.2882 8.34527 21.9409 8.28724 21.5912 8.28891C20.9866 8.29604 20.3983 8.48382 19.9034 8.82761C19.4085 9.17141 19.0301 9.65519 18.8179 10.2155C18.6177 10.774 18.5933 11.3795 18.748 11.952C18.9028 12.5245 19.2293 13.0371 19.6845 13.4221C19.7273 13.4686 19.7767 13.5086 19.8312 13.5409H19.9112C19.9465 13.5772 19.987 13.6083 20.0312 13.6333C20.7617 14.0344 21.5785 14.2568 22.4134 14.2821C23.2484 14.3073 24.0774 14.1346 24.8312 13.7784C25.7299 13.3269 26.5056 12.6679 27.0928 11.8571C27.6799 11.0463 28.0612 10.1076 28.2046 9.12026C28.3416 8.18021 28.272 7.22195 28.0005 6.31098C27.729 5.40001 27.2619 4.55779 26.6312 3.84189C25.8711 2.96069 24.9294 2.25049 23.8693 1.7589C22.8092 1.2673 21.6552 1.00568 20.4845 0.991577H20.3645C17.9167 0.991221 15.5666 1.94265 13.8208 3.64085C12.075 5.33905 11.0732 7.64807 11.0312 10.0704C11.0066 11.0408 11.1233 12.0096 11.3779 12.9471C11.2047 12.9593 11.031 12.9593 10.8579 12.9471C8.85186 12.8148 6.84395 13.1757 5.01307 13.9976C3.18219 14.8196 1.58522 16.0771 0.36449 17.658C0.233735 17.8065 0.15213 17.9911 0.130673 18.187C0.109216 18.3828 0.14894 18.5805 0.244489 18.7533C0.327421 18.9229 0.455828 19.0668 0.615708 19.1692C0.775588 19.2716 0.960804 19.3285 1.15116 19.3339H3.95117C4.07865 19.3377 4.20563 19.3163 4.32467 19.271C4.44372 19.2257 4.55244 19.1573 4.6445 19.07C5.43876 18.3208 6.38354 17.7457 7.41731 17.3819C8.45109 17.0181 9.55069 16.8739 10.6445 16.9586C12.5053 16.9929 14.2791 17.7442 15.5888 19.0528C16.8985 20.3613 17.6408 22.1239 17.6579 23.9657C17.6403 25.3248 17.0788 26.6215 16.0964 27.5715C15.1141 28.5214 13.7912 29.047 12.4179 29.0329C11.8322 29.0153 11.2565 28.8785 10.7266 28.631C10.1967 28.3836 9.72393 28.0307 9.33785 27.5945C9.15905 27.3828 9.01096 27.1474 8.89785 26.8951C8.82355 26.6904 8.82355 26.4665 8.89785 26.2617C8.99955 26.0101 9.19298 25.8054 9.43988 25.6881C9.68678 25.5708 9.96917 25.5495 10.2312 25.6283C10.5594 25.752 10.9067 25.819 11.2579 25.8263C11.8635 25.8264 12.4546 25.6427 12.9514 25.2998C13.4482 24.957 13.8268 24.4717 14.0361 23.9092C14.2454 23.3467 14.2753 22.7343 14.1219 22.1545C13.9684 21.5746 13.6389 21.0553 13.1779 20.6667C13.1385 20.6231 13.0878 20.5911 13.0312 20.5743H12.9512C12.9224 20.5315 12.8802 20.499 12.8312 20.4819C12.1026 20.0755 11.2852 19.85 10.4492 19.8247C9.61324 19.7995 8.78352 19.9752 8.03118 20.3368C7.13498 20.7829 6.35981 21.4351 5.77059 22.2386C5.18137 23.0422 4.79523 23.9738 4.6445 24.9553C4.50743 25.8954 4.57703 26.8536 4.84857 27.7646C5.12011 28.6756 5.58717 29.5178 6.21784 30.2337C6.9813 31.111 7.92367 31.8185 8.98304 32.3097C10.0424 32.801 11.1948 33.0649 12.3645 33.084H12.4845C14.9324 33.0844 17.2825 32.133 19.0283 30.4348C20.7741 28.7366 21.7759 26.4275 21.8179 24.0052C21.8235 23.0307 21.7025 22.0594 21.4579 21.1153C21.631 21.1275 21.8048 21.1275 21.9779 21.1153C22.2712 21.1153 22.5379 21.1153 22.8179 21.1153C24.7019 21.1148 26.5602 20.682 28.2467 19.8509C29.9333 19.0198 31.4021 17.8129 32.5379 16.3252C32.6372 16.1786 32.6956 16.0087 32.7073 15.8326C32.7191 15.6566 32.6836 15.4805 32.6046 15.3223Z" fill="#B1B1B1"/>
</svg>
