<svg width="177" height="52" viewBox="0 0 177 52" fill="none" xmlns="http://www.w3.org/2000/svg">
<path d="M20.5316 26.5835C24.4865 24.9434 27.8575 26.0066 31.1405 24.6946C32.5014 24.1664 33.7154 23.3034 34.6757 22.1813C35.6361 21.0592 36.3136 19.7122 36.6487 18.2585C36.9204 16.9093 36.8753 15.5131 36.5171 14.1854C36.1588 12.8577 35.4978 11.6367 34.5886 10.6235L30.4134 6.56274C29.4269 5.70201 28.4856 4.7883 27.5932 3.82544L4.35938 26.3121L4.52462 26.4704L11.1345 32.8725C13.6757 29.9665 16.9164 27.7977 20.5316 26.5835Z" fill="#B1B1B1"/>
<path d="M43.6927 19.2032C41.0478 22.1033 37.611 24.2266 33.7752 25.3305C31.8592 25.8799 29.8776 26.1874 27.8798 26.2453C26.1455 26.1825 24.4234 26.5487 22.877 27.309C21.5093 27.957 20.3423 28.941 19.4931 30.1622C18.644 31.3833 18.1427 32.7986 18.0394 34.266C17.9767 35.3949 18.1589 36.524 18.5745 37.581C18.9901 38.6379 19.6298 39.5994 20.4527 40.4038L22.7668 42.4143C24.3945 43.6641 25.9096 45.0448 27.2958 46.5417L29.9735 44.127L34.0948 40.3719L43.6817 31.596L50.1061 25.7666L50.4917 25.3943L47.825 22.9796L43.6927 19.2032Z" fill="#B1B1B1"/>
<path d="M46.4698 17.4235V9.00091H36.9789L27.8304 0.407959L18.6499 9.00091H10.0899V17.4235L0.941406 26.0377L10.0899 34.652V43.0746H18.6499L27.7983 51.6675L36.9789 43.0746H46.4698V34.652L55.6183 26.0377L46.4698 17.4235ZM45.8064 33.1293L43.2598 35.2589V40.945H37.653L37.5353 41.0834L27.8197 50.2194L20.2656 43.1385L18.1256 41.126L18.0079 40.945H11.8768L12.2299 41.0195V35.2802L2.4394 26.0377L12.2299 16.8379V11.1305H18.0079L27.8304 1.90933L37.653 11.1305H43.2598V16.8379L45.8064 18.9675L53.0931 25.7183L53.5104 26.0377H53.4355L45.8064 33.1293Z" fill="#B1B1B1"/>
<path d="M110.736 38.5302L106.924 31.279L103.067 38.5302H110.736ZM75.2242 36.7258V41.2367H86.6367L86.8848 41.1577H86.9637C87.2121 41.071 87.4503 40.9576 87.6741 40.8194L87.7982 40.7405L87.9674 40.5713L88.0914 40.4022L88.2606 40.233L88.3395 40.0639C88.4897 39.8594 88.5936 39.6246 88.644 39.376C88.6972 39.0538 88.6761 38.7238 88.5823 38.4111C88.4884 38.0984 88.3244 37.8113 88.1027 37.5716L87.9786 37.4025L87.8095 37.2784L87.5952 37.1205L87.3922 37.019L87.178 36.895H87.099H86.975C83.0739 36.4406 79.1368 36.3839 75.2242 36.7258ZM75.2242 29.4747V33.9855H86.6367H86.7607H86.8848H86.9637C87.2248 33.9146 87.4672 33.7876 87.6741 33.6134C87.9751 33.4655 88.2117 33.2129 88.3395 32.9029C88.4987 32.6794 88.5994 32.4197 88.6327 32.1473C88.6882 31.8278 88.6692 31.4998 88.5773 31.1888C88.4853 30.8779 88.3229 30.5923 88.1027 30.3543L87.9786 30.1851L87.8095 30.016L87.5952 29.937L87.178 29.6889H87.099H86.9637H86.8848H86.7607H86.6367H86.5126H75.2355L75.2242 29.4747ZM120.333 26.7456H125.114L138.568 39.4549V26.7456H143.349V43.977H138.568L125.125 31.2677V43.977H120.344V26.7456H120.333ZM153.532 35.3839L165.937 26.7456H160.66L150.138 33.9968V26.7456H145.311V43.977H150.138V36.7258L160.66 43.977H165.937L153.532 35.3839ZM155.788 7.70984H160.569V14.961L171.136 7.70984H176.481L164.077 16.3481L176.481 24.9413H171.192L160.626 17.6901V24.9413H155.844V7.70984H155.788ZM145.221 17.6901V24.9413H140.507V17.6901L131.373 7.70984H136.2L142.909 14.961L149.619 7.70984H154.446L145.221 17.6901ZM120.344 7.70984H125.125V22.2122H138.579V24.9413H120.344V7.70984ZM106.924 12.2207L110.736 19.4719H103.067L106.924 12.2207ZM113.634 24.9413H118.416L109.315 7.70984H104.488L95.399 24.9413H100.18L101.601 22.2122H112.202L113.634 24.9413ZM70.4766 7.70984H75.2581V14.961H88.6778V7.70984H93.4931V24.9413H88.644V17.6901H75.2242V24.9413H70.4766V7.70984ZM70.4766 26.7456H89.1514H89.3657H89.6476H89.8619L90.0762 26.8245H90.2904L90.5385 26.9035C91.0737 27.0905 91.5705 27.3733 92.0046 27.738C92.4438 28.107 92.8041 28.5609 93.0637 29.0725C93.3234 29.584 93.4771 30.1427 93.5157 30.7151C93.5157 31.3123 93.3972 31.9035 93.167 32.4545C92.9368 33.0055 92.5995 33.5053 92.1746 33.9249C91.7498 34.3445 91.2458 34.6756 90.692 34.8989C90.1382 35.1223 89.5456 35.2334 88.9485 35.226C90.1146 35.2098 91.2417 35.6459 92.0932 36.4428C92.9448 37.2397 93.4546 38.3354 93.5157 39.5C93.4994 40.3683 93.2232 41.2117 92.7226 41.9214C92.222 42.631 91.5202 43.1742 90.7077 43.4808L90.5385 43.5598H90.2904L90.0311 43.8868H89.8168H89.6476H89.3995H70.4766V26.7456ZM100.18 43.977H95.399L104.488 26.7456H109.315L118.416 43.977H113.634L112.202 41.248H101.601L100.18 43.977Z" fill="#B1B1B1"/>
</svg>
