<svg width="129" height="42" viewBox="0 0 129 42" fill="none" xmlns="http://www.w3.org/2000/svg">
<path d="M67.7898 13.3435H63.6171L57.4789 19.8781V7.10083H54.168V29.7854H57.4789V23.8994L59.5048 21.8563L64.1764 29.7854H68.3189L61.8935 19.3592L67.7898 13.3435ZM71.0705 18.4026H74.2908C74.5629 16.2622 75.5154 15.4677 77.7075 15.4677C79.8544 15.4677 80.8673 16.2622 80.8673 17.9486C80.8673 18.5485 80.8069 18.9377 80.6557 19.1322C80.3231 19.6025 79.6427 19.7646 77.2842 20.0889C74.2152 20.5105 70.4053 20.9159 70.4053 25.2777C70.4053 28.3098 72.4009 30.1908 75.5909 30.1908C77.6168 30.1908 79.5822 29.6557 80.9732 28.2125C81.215 29.6395 82.1675 30.1908 83.4677 30.1908C84.1178 30.1908 84.6016 30.1259 85.675 29.834V27.2883C85.2517 27.3532 85.1459 27.3532 84.904 27.3532C84.2841 27.3532 84.1027 27.0937 84.1027 26.137V17.7864C84.1027 14.2516 81.4267 12.8085 77.7983 12.8085C74.0489 12.8409 71.4636 14.3651 71.0705 18.4026ZM80.8371 21.532V23.4778C80.8371 24.4669 80.8673 25.5533 80.1567 26.3154C79.3857 27.1424 78.0704 27.6288 76.6795 27.6288C74.9257 27.6288 73.9128 26.737 73.9128 25.1804C73.9128 23.0076 75.6968 22.6995 77.2842 22.4401C78.4786 22.2293 79.7334 22.1968 80.8371 21.532ZM101.02 18.1269C101.02 14.3975 98.1025 12.8733 94.595 12.8733C90.6641 12.8733 88.3056 14.7218 88.3056 17.8513C88.3056 21.3861 91.0723 21.8725 94.595 22.7968C96.5301 23.2995 98.2536 23.5913 98.2536 25.2452C98.2536 26.7046 96.9383 27.6288 94.9427 27.6288C92.8261 27.6288 91.4049 26.7046 91.2235 24.5318H87.973C88.1545 28.2936 90.5281 30.2718 94.8822 30.2718C98.9945 30.2718 101.58 28.1639 101.58 24.8561C101.58 21.224 98.299 20.4943 95.623 19.8295C93.1587 19.2295 91.6922 19.0998 91.6922 17.4459C91.6922 16.2298 92.7051 15.5325 94.4287 15.5325C96.2429 15.5325 97.528 16.1325 97.7699 18.1431L101.02 18.1269ZM108.625 13.3435H105.435V35.866H108.806V27.6126C110.031 29.4287 111.724 30.1908 113.811 30.1908C117.953 30.1908 120.629 26.8181 120.629 21.6131C120.629 16.2946 117.893 12.8571 113.629 12.8571C111.634 12.8571 109.698 13.6841 108.625 15.5325V13.3435ZM112.934 15.792C115.549 15.792 117.197 18.0621 117.197 21.6293C117.197 25.1317 115.595 27.3045 112.994 27.3045C110.288 27.3045 108.67 25.1317 108.67 21.5645C108.685 17.9648 110.258 15.792 112.934 15.792ZM128.128 7.00354H124.741V10.5708H128.128V7.00354ZM128.128 13.3435H124.741V29.7854H128.128V13.3435Z" fill="#B1B1B1"/>
<path d="M8.5088 36.7524C10.5591 28.126 8.12519 27.8309 8.12519 23.6452C8.12519 22.2499 9.20988 18.9094 9.36861 17.2861C9.73899 13.5565 8.82627 14.5493 11.5115 11.7857L11.6703 7.94877C13.0195 6.63402 13.6941 5.45344 15.3476 5.86933C16.3529 8.90128 14.4481 7.94877 14.2629 11.4905C15.3873 13.0065 16.1413 13.1541 16.9879 15.0591C18.0593 17.4739 17.2921 17.4471 19.316 19.4729C22.2922 19.8217 24.0912 19.8351 26.2209 17.6618C26.4458 15.3408 25.123 15.5421 26.4722 13.409C27.3982 11.9467 28.3109 11.1551 30.0438 11.7454C30.6126 14.0261 28.0596 14.4956 28.8533 17.0312C32.2793 17.38 33.0729 12.5906 35.6921 12.3491C35.6921 17.4605 30.4274 18.1313 30.3083 22.2902C30.2289 24.8929 32.5041 32.0569 34.8058 33.5863C36.8296 30.4336 39.0122 26.9991 39.2636 23.1891C41.0229 -2.81066 7.10665 -7.54642 0.664678 15.2201C0.333982 16.3873 0.135564 17.5679 0.0429688 18.7484V21.767C0.611767 29.253 5.16215 35.8267 8.5088 36.7524Z" fill="#B1B1B1"/>
<path d="M17.8968 41.2444C27.0449 42.3595 26.0812 39.4492 24.2727 28.7193C23.5599 24.4899 22.7282 22.2596 17.8572 22.654C14.821 26.3666 16.3523 33.6015 16.4579 36.7702C16.5371 39.2724 16.1279 39.4356 17.8968 41.2444ZM28.4177 38.6605C29.949 38.4701 30.213 38.1437 31.4539 37.1237C31.6519 34.9614 30.213 31.48 27.9689 30.7864C26.9129 32.8807 27.2165 36.607 28.4177 38.6605ZM13.3426 40.4556C13.3426 37.8173 13.6594 32.3639 12.3393 30.4872C10.5836 31.0176 11.1249 32.5679 11.1117 35.8726C11.0985 38.2933 10.6628 40.2108 13.3426 40.4556Z" fill="#B1B1B1"/>
</svg>
