<svg width="88" height="30" viewBox="0 0 88 30" fill="none" xmlns="http://www.w3.org/2000/svg">
<path d="M14.1901 12.0154C18.1336 17.6736 22.077 23.3004 26.0205 28.9586C21.9846 30.1465 18.4417 28.9273 16.1619 25.4887C14.1593 22.4877 12.2184 19.4554 9.9694 16.0168C8.79869 17.3297 7.68959 18.4863 6.70373 19.7055C6.45726 20.0181 6.45726 20.5808 6.45726 21.0184C6.42646 23.6756 6.45726 26.3014 6.45726 29.0836C4.42392 29.0836 2.51381 29.0836 0.480469 29.0836C0.480469 19.7055 0.480469 10.2961 0.480469 0.917938C5.04009 0.44903 6.45726 1.94953 6.45726 5.60701C6.45726 7.63894 6.45726 9.67087 6.48807 11.7028C6.48807 11.7966 6.54969 11.8904 6.67292 12.2342C7.04262 11.9216 7.41232 11.6715 7.68959 11.3902C9.93859 8.98314 12.28 6.60735 14.4058 4.07525C17.0861 0.917937 19.5508 0.323988 24.8806 0.886677C21.2144 4.73172 17.7331 8.35793 14.1901 12.0154Z" fill="#B1B1B1"/>
<path d="M67.3039 22.894C66.0407 27.8957 61.9124 29.9589 57.0139 29.615C51.8998 29.2712 48.2028 25.5199 47.8023 20.612C47.3093 14.2036 50.0821 9.67086 55.2887 8.2954C62.467 6.41977 68.6286 12.203 67.6428 20.1431C62.8675 20.1431 58.0614 20.1431 53.1937 20.1431C53.1321 22.2688 53.5634 23.9569 55.3811 24.8947C57.322 25.895 59.6326 26.1451 61.1422 24.5508C62.9907 22.644 64.9933 22.8003 67.3039 22.894ZM62.2513 16.5794C61.9741 13.4846 60.4028 12.0779 57.4761 12.1717C54.9806 12.2655 53.3477 13.9223 53.2553 16.5794C56.2437 16.5794 59.2013 16.5794 62.2513 16.5794Z" fill="#B1B1B1"/>
<path d="M45.152 21.2993C44.2894 26.5823 41.1469 29.3957 36.1252 29.6458C31.0726 29.8959 26.7287 26.9261 25.6812 22.2683C24.6953 17.9544 25.2807 13.8905 28.5155 10.5769C32.5822 6.41927 41.3934 7.35709 44.1045 12.2025C44.6282 13.1403 44.8439 14.2969 45.306 15.6099C43.6116 15.6099 42.256 15.7349 40.9621 15.5473C40.4383 15.4848 39.8222 14.9221 39.5141 14.3907C37.7272 11.2959 33.6297 11.1709 31.9044 14.3282C30.2408 17.423 30.2408 20.6428 32.0585 23.6751C33.6913 26.3947 38.0045 26.2072 39.3292 23.3625C40.0994 21.7056 41.0545 21.0492 42.7798 21.268C43.5192 21.393 44.2894 21.2993 45.152 21.2993Z" fill="#B1B1B1"/>
<path d="M82.3086 0.57373C83.6025 0.730033 84.6808 0.667512 85.5743 1.0739C86.3137 1.3865 86.9915 2.16801 87.4228 2.91827C87.7617 3.54348 87.7617 4.41877 87.7617 5.20028C87.7925 12.8591 87.7925 20.5179 87.7925 28.1455C87.7925 28.3956 87.7617 28.6456 87.7309 28.8645C84.1263 29.5522 82.3394 28.1142 82.3394 24.5193C82.3086 17.0167 82.3394 9.51423 82.3394 2.04297C82.3086 1.63659 82.3086 1.2302 82.3086 0.57373Z" fill="#B1B1B1"/>
<path d="M71.5846 0.57373C72.7553 0.730033 73.772 0.823814 74.7579 1.01138C75.867 1.26146 76.5139 2.04297 76.668 3.16835C76.7604 3.88734 76.7912 4.60633 76.7912 5.35658C76.7912 12.5465 76.7912 19.7051 76.7912 26.8951C76.7912 27.5515 76.7912 28.2393 76.7912 28.8645C73.2791 29.5522 71.5538 28.2393 71.523 24.8631C71.4922 17.1105 71.4922 9.35792 71.4922 1.60533C71.4922 1.35524 71.523 1.10516 71.5846 0.57373Z" fill="#B1B1B1"/>
</svg>
