<svg width="231" height="39" viewBox="0 0 231 39" fill="none" xmlns="http://www.w3.org/2000/svg">
<path d="M147.644 3.65958C146.602 4.70723 145.671 5.66378 144.808 6.54061C143.597 6.05095 142.375 5.37909 141.074 5.07163C137.722 4.28589 134.661 4.95775 131.982 7.26941C130.11 8.87504 128.944 10.902 128.518 13.3048C127.912 16.6527 128.764 19.659 131.029 22.2098C133.238 24.6922 136.04 25.8538 139.314 25.6602C141.87 25.5121 144.124 24.51 145.918 22.597C146.075 22.4261 146.153 22.1301 146.153 21.8909C146.187 21.0824 146.142 20.2739 146.175 19.4654C146.198 18.896 145.996 18.7138 145.436 18.7138C143.518 18.7366 141.601 18.7252 139.695 18.7252C139.437 18.7252 139.191 18.7252 138.765 18.7252C140.177 17.279 141.467 15.9694 142.767 14.6713C142.891 14.546 143.148 14.5232 143.35 14.5232C145.424 14.5118 147.498 14.5346 149.573 14.5005C150.189 14.4891 150.335 14.7282 150.335 15.309C150.312 18.0078 150.346 20.7066 150.301 23.4055C150.29 23.8496 150.032 24.3734 149.729 24.715C147.532 27.2317 144.841 28.8942 141.556 29.5775C138.843 30.1355 136.209 29.9077 133.619 28.9398C130.939 27.9377 128.753 26.2637 127.049 23.9521C125.603 21.9934 124.717 19.7615 124.347 17.3701C123.921 14.6485 124.347 11.9952 125.401 9.44442C126.533 6.70004 128.383 4.55919 130.782 2.93078C132.543 1.7351 134.516 1.02908 136.657 0.733001C139.639 0.334439 142.442 0.778551 145.122 2.08811C146.019 2.52083 146.826 3.13576 147.644 3.65958Z" fill="#B1B1B1"/>
<path d="M22.8978 29.2359C21.1488 29.2359 19.6353 29.2587 18.1217 29.2131C17.8303 29.2017 17.4379 29.0195 17.2809 28.7918C14.5005 24.8403 11.7425 20.8547 8.98453 16.8919C8.92847 16.8008 8.84999 16.721 8.7603 16.5844C7.89703 17.5865 7.07861 18.543 6.24897 19.4882C6.23776 19.511 6.24897 19.5565 6.22655 19.5679C4.78029 20.5928 4.92603 22.1073 4.94846 23.6105C4.98209 25.4439 4.95967 27.2772 4.95967 29.2245C3.69279 29.2245 2.45955 29.2359 1.2263 29.2017C1.09177 29.2017 0.901176 28.974 0.833908 28.8032C0.76664 28.6437 0.811485 28.4274 0.811485 28.2452C0.800274 19.511 0.811485 10.7768 0.789062 2.04259C0.789062 1.24546 1.01329 0.994937 1.78687 1.05187C2.52682 1.10881 3.27797 1.10881 4.01792 1.05187C4.73544 0.994937 4.98209 1.22269 4.98209 1.99704C4.94846 5.80045 4.95967 9.60387 4.95967 13.4073C4.95967 13.7034 4.95967 13.9881 4.95967 14.5347C5.56508 13.8628 6.04717 13.3731 6.49562 12.8493C7.67281 11.46 8.82757 10.048 10.0048 8.65871C11.5856 6.77978 13.1776 4.90084 14.7696 3.02191C15.1507 2.5778 15.5431 2.14507 15.9131 1.68957C16.2943 1.2113 16.7315 1.0291 17.3482 1.05187C18.5141 1.10881 19.6913 1.06326 20.8573 1.07465C21.104 1.07465 21.3618 1.09742 21.8663 1.13159C18.3908 5.23108 15.0723 9.14837 11.664 13.1682C15.3638 18.4633 19.0859 23.7813 22.8978 29.2359Z" fill="#B1B1B1"/>
<path d="M215.753 27.2544C215.753 31.1148 215.753 34.8157 215.753 38.5736C214.363 38.5736 213.051 38.5736 211.605 38.5736C211.605 38.3117 211.605 38.027 211.605 37.7423C211.605 29.1334 211.616 20.5358 211.594 11.9269C211.594 11.1639 211.773 10.8565 212.569 10.9248C213.331 10.9931 214.116 10.9817 214.879 10.9248C215.596 10.8679 215.854 11.1525 215.764 11.8472C215.731 12.1433 215.753 12.4393 215.753 12.8379C216.101 12.5988 216.415 12.4166 216.661 12.1888C218.343 10.6515 220.372 10.2188 222.525 10.4921C224.644 10.754 226.505 11.7219 228.018 13.282C230.698 16.0378 231.595 20.2284 230.036 23.8724C228.613 27.2089 226.124 29.1448 222.558 29.7369C219.879 30.181 217.738 29.2472 215.753 27.2544ZM221.168 14.6599C218.242 14.4777 215.753 17.2107 215.72 20.1031C215.686 23.1322 218.433 25.7057 221.123 25.6716C224.173 25.6374 226.415 23.246 226.617 20.4789C226.875 17.0626 223.814 14.3752 221.168 14.6599Z" fill="#B1B1B1"/>
<path d="M110.75 29.1902C109.315 29.1902 108.003 29.1902 106.613 29.1902C106.613 28.5753 106.613 27.9945 106.613 27.391C105.839 27.9376 105.167 28.4956 104.404 28.9397C102.027 30.329 99.5834 30.0898 97.1954 28.9852C94.0787 27.5504 92.1728 25.0338 91.6458 21.6403C91.2422 19.0554 91.8028 16.5615 93.3724 14.3865C94.9532 12.1887 97.1169 10.9133 99.7067 10.5034C101.837 10.1731 103.889 10.6173 105.593 12.109C105.873 12.3595 106.164 12.5987 106.59 12.9631C106.59 12.4734 106.613 12.0862 106.59 11.7105C106.557 11.1752 106.714 10.9133 107.297 10.9361C108.227 10.9703 109.158 10.9589 110.088 10.9475C110.492 10.9475 110.75 11.0272 110.75 11.5169C110.75 17.3814 110.75 23.2573 110.75 29.1902ZM101.063 14.6598C98.2381 14.4776 95.8389 17.2562 95.7155 19.7956C95.5362 23.3712 98.4623 25.6373 101.097 25.6715C104.079 25.717 106.624 23.0979 106.613 20.1713C106.602 17.222 104.191 14.5118 101.063 14.6598Z" fill="#B1B1B1"/>
<path d="M71.7922 14.9902C68.4624 18.3609 65.1214 21.7543 61.7804 25.1478C63.2043 26.3207 66.7022 25.5919 68.3167 23.2119C69.2248 24.214 70.1329 25.2161 71.0746 26.2524C70.1217 28.3135 65.9847 30.238 62.9464 29.8736C57.3183 29.1904 54.381 25.0909 54.1455 20.627C53.8765 15.7987 56.9035 12.0408 61.0069 10.8224C65.7717 9.41032 70.0432 11.8017 71.7922 14.9902ZM58.6525 22.0276C60.9844 19.659 63.294 17.3132 65.5811 14.9902C63.664 14.1703 61.489 14.6713 59.9418 16.1517C58.5292 17.5068 57.6659 19.9096 58.6525 22.0276Z" fill="#B1B1B1"/>
<path d="M32.7623 29.8849C27.3472 29.7824 23.2327 25.5804 23.1879 20.1828C23.143 14.8762 27.3921 10.0935 33.435 10.4692C38.5361 10.7881 42.3816 14.8306 42.404 20.0917C42.4264 25.6032 38.2671 29.7938 32.7623 29.8849ZM32.7847 25.6715C36.036 25.6374 38.2558 23.098 38.2783 20.1372C38.2895 17.0398 35.7109 14.7623 33.0762 14.6257C29.7801 14.4663 27.2912 17.2676 27.3136 20.1031C27.336 22.9613 29.5334 25.6943 32.7847 25.6715Z" fill="#B1B1B1"/>
<path d="M186.708 20.1373C186.876 25.5463 182.391 29.8964 177.144 29.8736C171.842 29.8508 167.525 25.5236 167.559 20.012C167.581 15.0357 171.83 10.0822 177.828 10.4466C182.436 10.7199 186.876 14.7624 186.708 20.1373ZM171.707 20.0576C171.595 23.0525 174.274 25.6602 176.965 25.683C180.149 25.7058 182.582 23.508 182.649 20.2056C182.717 17.1879 180.407 14.8535 177.604 14.6485C174.129 14.398 171.707 17.2677 171.707 20.0576Z" fill="#B1B1B1"/>
<path d="M207.077 29.1903C205.698 29.1903 204.375 29.1903 202.996 29.1903C202.996 28.5754 202.996 27.9946 202.996 27.3455C202.268 27.9035 201.662 28.4843 200.956 28.9056C199.543 29.7597 198.019 29.9874 196.371 29.7711C193.938 29.4522 192.267 28.0971 191.034 26.0815C190.339 24.9542 190.092 23.6674 190.081 22.3692C190.036 18.8391 190.081 15.309 190.059 11.7789C190.059 11.1639 190.193 10.8907 190.855 10.9248C191.942 10.9704 193.03 10.9362 194.218 10.9362C194.218 11.2664 194.218 11.5511 194.218 11.8472C194.218 14.899 194.263 17.9395 194.207 20.9913C194.162 23.6902 196.471 25.8652 198.859 25.683C201.079 25.5122 202.952 23.7129 202.985 21.4127C203.019 18.2356 203.019 15.0471 202.974 11.87C202.963 11.0956 203.209 10.8907 203.927 10.9248C204.958 10.9818 205.99 10.9362 207.077 10.9362C207.077 17.0399 207.077 23.0866 207.077 29.1903Z" fill="#B1B1B1"/>
<path d="M74.1016 26.2638C75.0769 25.2731 76.0523 24.2938 77.0277 23.3144C78.3058 25.2503 81.8149 26.2866 83.8218 25.3528C84.4496 25.0567 84.8196 24.5557 84.8196 23.9635C84.8084 23.3144 84.3823 22.7906 83.6984 22.6084C82.4428 22.2782 81.1871 21.9821 79.9314 21.6291C78.474 21.2192 77.0277 20.7409 75.9402 19.5794C75.2339 18.8164 74.8751 17.9282 74.8303 16.8577C74.7742 15.2977 74.9985 13.8856 76.0747 12.633C76.9829 11.574 78.1376 10.9818 79.3933 10.6971C82.7679 9.92278 85.7389 10.811 88.1718 13.191C87.2076 14.1703 86.2658 15.1269 85.3017 16.1062C83.9787 14.808 82.2858 14.5575 80.4808 14.6827C79.4718 14.7511 78.7655 15.5937 79.0233 16.4592C79.1018 16.7439 79.3933 17.0855 79.6512 17.1652C81.0862 17.6207 82.5437 17.9965 83.9787 18.3951C85.6044 18.8506 87.1403 19.4085 88.1718 20.9459C89.3377 22.6767 89.1023 25.8425 87.6112 27.3798C85.5595 29.5092 83.0818 30.1128 80.2341 29.7484C77.6892 29.4181 75.7384 28.1313 74.1016 26.2638Z" fill="#B1B1B1"/>
<path d="M50.1081 29.1903C48.7067 29.1903 47.3838 29.1903 45.9936 29.1903C45.9823 28.9284 45.9599 28.6665 45.9599 28.416C45.9599 19.6248 45.9711 10.8337 45.9375 2.04255C45.9375 1.24543 46.1729 1.00629 46.9353 1.05184C47.7874 1.10878 48.6394 1.07462 49.4915 1.06323C49.9287 1.05184 50.1418 1.22265 50.1081 1.67815C50.0969 1.83758 50.1081 1.997 50.1081 2.16782C50.1081 10.8792 50.1081 19.5907 50.1081 28.3021C50.1081 28.564 50.1081 28.8259 50.1081 29.1903Z" fill="#B1B1B1"/>
<path d="M158.802 10.9362C158.802 11.6536 158.802 12.2343 158.802 13.0428C160.652 11.1411 162.704 10.1618 165.271 10.5034C165.271 11.8585 165.271 13.2137 165.271 14.5688C164.453 14.6485 163.634 14.6599 162.85 14.8307C160.933 15.2292 159.094 17.1196 158.971 19.101C158.791 21.9137 158.836 24.7378 158.78 27.5619C158.769 28.0971 158.78 28.6209 158.78 29.1903C157.379 29.1903 156.067 29.1903 154.665 29.1903C154.654 28.9284 154.632 28.6778 154.632 28.4159C154.632 22.9158 154.643 17.4156 154.609 11.9155C154.609 11.1184 154.845 10.8792 155.607 10.9248C156.639 10.9817 157.67 10.9362 158.802 10.9362Z" fill="#B1B1B1"/>
</svg>
