<svg width="75" height="24" viewBox="0 0 75 24" fill="none" xmlns="http://www.w3.org/2000/svg">
<path fill-rule="evenodd" clip-rule="evenodd" d="M12.7954 18.5323C14.4179 18.5323 15.7498 17.973 16.791 16.855C17.8319 15.7367 18.3525 14.2389 18.3525 12.3614C18.3525 10.4839 17.8319 8.98609 16.791 7.86805C15.7498 6.74967 14.4179 6.19074 12.7954 6.19074C11.1729 6.19074 9.83441 6.74967 8.77989 7.86788C7.72538 8.98609 7.1976 10.4841 7.1976 12.3614C7.1976 14.2387 7.7252 15.7367 8.77972 16.855C9.83424 17.973 11.1727 18.5323 12.7952 18.5323H12.7954ZM12.7952 23.8333C10.4966 23.8333 8.43491 23.3432 6.60952 22.363C4.7843 21.3827 3.35789 20.0231 2.33029 18.2837C1.30286 16.5443 0.789062 14.5703 0.789062 12.3614C0.789062 10.1527 1.30286 8.17839 2.33047 6.43915C3.35807 4.69974 4.78448 3.33996 6.6097 2.35981C8.43509 1.37967 10.4968 0.88951 12.7954 0.88951C15.0939 0.88951 17.1491 1.37967 18.961 2.35964C20.7726 3.33996 22.1922 4.69974 23.22 6.43915C24.2474 8.17839 24.761 10.1527 24.761 12.3614C24.761 14.5703 24.2474 16.5443 23.22 18.2837C22.1922 20.0231 20.7726 21.3827 18.961 22.363C17.1491 23.3432 15.0939 23.8333 12.7954 23.8333H12.7952ZM38.508 0.57373C37.2691 0.57373 35.9789 0.761444 34.7314 1.13933V8.37769C35.2905 7.57701 36.6033 6.19986 38.6599 6.25705C40.1127 6.2974 41.1779 6.79563 42.1466 7.79998C42.9947 8.6789 43.4021 9.97325 43.4021 11.7402V23.5019H49.8183V10.7462C49.8183 2.39911 42.8056 0.57373 38.508 0.57373Z" fill="#B1B1B1"/>
<path fill-rule="evenodd" clip-rule="evenodd" d="M63.0881 5.77626C61.6552 5.77626 60.4518 6.19046 59.4783 7.01885C58.5046 7.84724 57.9099 8.97914 57.6935 10.4149H68.4424C68.2261 9.00668 67.6312 7.88163 66.6576 7.03955C65.6842 6.19747 64.4944 5.77644 63.0881 5.77644V5.77626ZM74.4052 12.4441C74.4052 12.5269 74.3644 13.1067 74.2833 14.1835H57.7748C58.072 15.564 58.7753 16.6547 59.8838 17.4553C60.9925 18.256 62.3715 18.6562 64.0211 18.6562C65.1571 18.6562 66.1642 18.4837 67.0431 18.1387C67.922 17.7936 68.7397 17.2482 69.497 16.5027L72.8637 20.23C70.8087 22.632 67.807 23.8332 63.8588 23.8332C61.3983 23.8332 59.2213 23.3432 57.3282 22.3629C55.4356 21.3828 53.9753 20.023 52.9477 18.2836C51.9202 16.5443 51.4062 14.57 51.4062 12.3613C51.4062 10.18 51.9134 8.21285 52.9276 6.45975C53.9415 4.70647 55.334 3.33967 57.1052 2.35988C58.8765 1.37956 60.8574 0.889404 63.0477 0.889404C65.184 0.889404 67.1172 1.35869 68.8481 2.2976C70.5787 3.23617 71.9375 4.58227 72.9244 6.33554C73.9116 8.08864 74.4052 10.1249 74.4052 12.4441Z" fill="#B1B1B1"/>
<path d="M33.9085 0.57373H31.6892L27.0667 3.41832C25.8018 4.19675 25.0312 5.5757 25.0312 7.06097H27.2506V23.7912H33.9085V0.57373Z" fill="#B1B1B1"/>
</svg>
