<svg width="143" height="43" viewBox="0 0 143 43" fill="none" xmlns="http://www.w3.org/2000/svg">
<path d="M22.6665 0.573608C22.773 0.660429 22.8953 0.609126 23.0097 0.617019C26.5428 0.877774 29.9528 2.02738 32.9232 3.95912C35.8936 5.89087 38.3281 8.54216 40.0008 11.6669C41.0308 13.5792 41.7522 15.6422 42.1385 17.7798C42.3008 18.6931 42.4048 19.6158 42.4501 20.5423C42.4777 21.083 42.4974 21.6197 42.4777 22.1564C42.4337 23.3883 42.2886 24.6145 42.0439 25.8226C41.2912 29.506 39.5578 32.9175 37.027 35.6964C33.6402 39.4315 29.0171 41.8145 24.0115 42.4053C23.5092 42.4723 23.0036 42.5119 22.4969 42.5237C22.4299 42.5237 22.3549 42.5237 22.3037 42.571H20.6866C20.655 42.5237 20.6038 42.5237 20.5525 42.5237C20.2133 42.5237 19.8781 42.4961 19.5428 42.4645C18.8491 42.4048 18.1592 42.3073 17.4761 42.1725C15.3999 41.7689 13.398 41.0489 11.5402 40.0375C9.80794 39.0976 8.21499 37.9208 6.80733 36.541C6.06603 35.816 5.38167 35.0349 4.76034 34.2047C3.01362 31.9065 1.76077 29.2717 1.0805 26.4658C0.77785 25.1799 0.587814 23.87 0.512554 22.551C0.471822 21.7948 0.482364 21.0367 0.544107 20.2819C0.612277 19.3205 0.736066 18.3638 0.914852 17.4168C1.43253 14.7867 2.45736 12.2828 3.93208 10.0449C4.97488 8.46469 6.22443 7.03126 7.64742 5.78284C8.93689 4.64837 10.3609 3.67685 11.8873 2.89014C13.4888 2.06321 15.1912 1.44897 16.9515 1.06296C18.0288 0.817832 19.1256 0.668602 20.2291 0.617019C20.2485 0.619955 20.2684 0.617454 20.2865 0.609792C20.3046 0.602131 20.3202 0.589607 20.3316 0.573608L22.6665 0.573608ZM6.92565 28.0326V29.5282C6.90483 29.6617 6.93025 29.7983 6.99769 29.9153C7.06512 30.0323 7.17053 30.1227 7.2964 30.1715C7.37531 30.2122 7.45053 30.2598 7.52121 30.3136C9.23726 31.4228 11.0806 32.3211 13.0114 32.9892C14.4423 33.4908 15.9136 33.8684 17.4091 34.1179C18.3895 34.2768 19.3786 34.3769 20.3711 34.4178C21.2373 34.4579 22.1051 34.4487 22.9702 34.3902C23.6131 34.3428 24.256 34.2836 24.8949 34.2086C26.4746 34.0043 28.0315 33.6515 29.545 33.155C31.0462 32.6613 32.4986 32.0298 33.8835 31.2686C34.558 30.8976 35.2088 30.4793 35.8556 30.0847C35.9345 30.0334 36.041 29.9939 36.0291 29.8676C36.0303 29.6789 36.0435 29.4904 36.0686 29.3033C36.0686 28.3562 36.1001 27.413 36.037 26.4658C35.963 25.3451 35.8194 24.2301 35.6071 23.1272C34.9132 19.5595 33.4766 16.1778 31.3909 13.202C30.2589 11.5847 28.9447 10.103 27.4744 8.78603C26.4213 7.83977 25.2892 6.98554 24.0904 6.23272C23.3015 5.74337 22.5035 5.29348 21.6963 4.88306C21.6336 4.84386 21.5612 4.82307 21.4872 4.82307C21.4133 4.82307 21.3409 4.84386 21.2782 4.88306L21.0652 4.98961C19.9997 5.53279 18.9719 6.14718 17.9888 6.82863C16.3902 7.93562 14.9227 9.22122 13.6148 10.6606C12.6717 11.6996 11.8143 12.8135 11.0512 13.9913C9.90979 15.7586 8.98296 17.6557 8.29031 19.6425C7.82143 21.0156 7.46786 22.4254 7.23329 23.8573C7.08302 24.7482 6.98163 25.6467 6.9296 26.5487C6.89804 27.0341 6.92565 27.5353 6.92565 28.0326Z" fill="#B1B1B1"/>
<path d="M142.48 38.7481H142.09H133.507C133.159 38.7481 133.173 38.7991 133.173 38.405V28.3372C133.173 27.6138 133.173 26.8857 133.173 26.1576C133.173 25.8237 133.14 25.8562 133.474 25.8562H141.284H142.48V28.532H142.304H138.047C137.541 28.532 137.04 28.532 136.535 28.532C136.41 28.532 136.335 28.5552 136.34 28.7036C136.34 29.3945 136.34 30.0948 136.34 30.7765C136.34 30.8738 136.368 30.9295 136.475 30.9249C136.581 30.9202 136.641 30.9249 136.72 30.9249H141.26C141.548 30.9249 141.548 30.9249 141.552 31.2124V33.0627C141.552 33.5264 141.603 33.4569 141.158 33.4615H136.623C136.317 33.4615 136.34 33.4615 136.34 33.7444V35.7477C136.34 36.0213 136.312 36.0167 136.604 36.0167H139.804H142.48V38.7481Z" fill="#B1B1B1"/>
<path d="M98.8978 13.6045V20.2731C98.8978 20.6209 98.8978 20.5792 98.5917 20.5792H96.1293C95.7908 20.5792 95.8 20.607 95.8 20.2638V8.0907C95.8 7.65015 95.7351 7.70116 96.1942 7.69653C96.8249 7.69653 97.4602 7.69653 98.0955 7.69653C98.1881 7.68544 98.2819 7.70252 98.3646 7.74554C98.4473 7.78856 98.5152 7.85551 98.5593 7.93767C99.7743 9.62877 100.994 11.3183 102.218 13.0063C102.233 13.0361 102.255 13.062 102.281 13.0821C102.308 13.1021 102.339 13.1159 102.371 13.1223C102.654 12.7374 102.942 12.3432 103.224 11.949C104.192 10.6103 105.158 9.27169 106.123 7.93303C106.171 7.85453 106.239 7.79084 106.321 7.74908C106.403 7.70732 106.495 7.68913 106.587 7.69653C107.268 7.69653 107.95 7.69653 108.627 7.69653C108.766 7.69653 108.836 7.69653 108.845 7.88202C108.854 8.06752 108.882 8.17881 108.882 8.34576V20.1896C108.882 20.6302 108.928 20.5792 108.488 20.5792H106.021C105.743 20.5792 105.738 20.5792 105.738 20.287V13.6695C105.617 13.6416 105.603 13.7437 105.557 13.7993C104.792 14.8195 104.022 15.8351 103.262 16.86C103.207 16.9623 103.123 17.0458 103.021 17.0996C102.918 17.1534 102.802 17.1749 102.687 17.1614C102.43 17.1382 102.173 17.1382 101.917 17.1614C101.836 17.1712 101.755 17.1565 101.683 17.1192C101.611 17.082 101.552 17.024 101.513 16.9527L99.1946 13.8364C99.1343 13.7529 99.0694 13.6741 99.0045 13.5906L98.8978 13.6045Z" fill="#B1B1B1"/>
<path d="M71.1261 32.3025C71.0705 30.9036 71.4763 29.5251 72.2808 28.3793C72.7665 27.6374 73.4081 27.0103 74.161 26.5417C74.9138 26.0732 75.7598 25.7745 76.64 25.6664C78.0459 25.4243 79.4924 25.6337 80.7719 26.2647C81.6874 26.7215 82.4805 27.3903 83.0855 28.2154C83.6904 29.0406 84.0896 29.9982 84.2499 31.0087C84.4753 32.2498 84.3747 33.5281 83.9578 34.7186C83.695 35.4707 83.2922 36.1662 82.7706 36.7683C81.9242 37.8145 80.7521 38.5475 79.441 38.8505C77.931 39.2285 76.3386 39.0981 74.9102 38.4795C73.7514 37.9557 72.7804 37.09 72.1278 35.9985C71.4259 34.897 71.0764 33.6077 71.1261 32.3025ZM81.0826 32.3025C81.0826 32.1866 81.0826 32.066 81.0826 31.9501C81.0767 31.3366 80.9028 30.7365 80.5799 30.2149C80.257 29.6933 79.7973 29.2702 79.2508 28.9914C78.8305 28.7706 78.3673 28.6436 77.8932 28.6191C77.419 28.5946 76.9452 28.6732 76.5044 28.8495C76.0636 29.0258 75.6662 29.2957 75.3398 29.6404C75.0133 29.9852 74.7655 30.3966 74.6134 30.8464C74.4158 31.4244 74.3385 32.0367 74.3862 32.6457C74.4929 34.7325 76.153 36.2907 78.2538 35.9707C79.0628 35.8555 79.7966 35.4338 80.3035 34.7928C80.8706 34.0867 81.149 33.1918 81.0826 32.2886V32.3025Z" fill="#B1B1B1"/>
<path d="M104.247 32.2791V26.2505C104.251 26.181 104.251 26.1113 104.247 26.0418C104.247 25.8748 104.312 25.8377 104.456 25.847H104.632C106.487 25.847 108.383 25.847 110.262 25.847C111.543 25.8252 112.781 26.3063 113.712 27.1872C114.448 27.9344 114.887 28.924 114.946 29.9711C115.006 31.0182 114.683 32.0512 114.036 32.8773C113.7 33.2997 113.276 33.6445 112.794 33.8882C112.464 34.0505 112.455 34.0923 112.673 34.4076L115.256 38.2195C115.302 38.2845 115.349 38.354 115.39 38.4236C115.506 38.6415 115.465 38.725 115.228 38.725C114.171 38.725 113.113 38.725 112.061 38.725C111.999 38.7337 111.937 38.7247 111.88 38.6993C111.823 38.6739 111.775 38.6329 111.741 38.5813C110.957 37.3338 110.159 36.0956 109.38 34.8435C109.336 34.7382 109.259 34.6501 109.16 34.5924C109.061 34.5347 108.947 34.5106 108.833 34.5236C108.481 34.5514 108.128 34.5236 107.776 34.5236C107.423 34.5236 107.414 34.4957 107.414 34.876C107.414 36.0261 107.414 37.1947 107.414 38.3262C107.41 38.4081 107.41 38.4901 107.414 38.572C107.414 38.7111 107.363 38.7528 107.229 38.7482C106.909 38.7482 106.593 38.7482 106.278 38.7482H104.553C104.238 38.7482 104.242 38.7482 104.242 38.4468V32.2791H104.247ZM107.419 30.2015C107.419 30.6653 107.419 31.129 107.419 31.5927C107.419 31.7782 107.474 31.8339 107.66 31.8292C108.444 31.8292 109.227 31.8292 110.011 31.8292C110.304 31.8213 110.592 31.7451 110.85 31.6066C111.138 31.4684 111.374 31.2426 111.524 30.9618C111.675 30.681 111.733 30.3596 111.69 30.0438C111.683 29.7495 111.586 29.4643 111.412 29.227C111.238 28.9897 110.995 28.8118 110.716 28.7176C110.457 28.6116 110.18 28.555 109.9 28.5506C109.149 28.5506 108.402 28.5506 107.651 28.5506C107.461 28.5506 107.414 28.6202 107.419 28.7964C107.423 29.2648 107.419 29.7331 107.419 30.2015Z" fill="#B1B1B1"/>
<path d="M76.1791 7.69671C77.0834 7.69671 77.9877 7.69671 78.892 7.69671C80.0005 7.68011 81.0817 8.04158 81.9573 8.72158C82.4526 9.08962 82.8545 9.56879 83.1308 10.1205C83.4071 10.6723 83.5499 11.2811 83.5479 11.8982C83.5855 12.7323 83.3827 13.5596 82.9636 14.2818C82.5933 14.897 82.0584 15.3965 81.4194 15.724C81.0809 15.8956 81.0669 15.9327 81.2803 16.248L83.8076 19.9579C83.8633 20.0414 83.9282 20.1295 83.9792 20.2223C84.1137 20.4588 84.058 20.5654 83.7937 20.5654C82.7596 20.5654 81.7301 20.5654 80.696 20.5654C80.6274 20.572 80.5585 20.5579 80.4981 20.5248C80.4378 20.4917 80.3887 20.4413 80.3574 20.3799C79.5644 19.1232 78.7622 17.8758 77.9784 16.6098C77.9345 16.5168 77.8626 16.44 77.7728 16.3901C77.6829 16.3402 77.5797 16.3197 77.4776 16.3315C77.0788 16.3315 76.68 16.3315 76.2812 16.3315C76.0168 16.3315 76.0122 16.3315 76.0122 16.6005C76.0122 17.7645 76.0122 18.9192 76.0122 20.0832C76.0122 20.5469 76.0122 20.5469 75.5206 20.5469C74.723 20.5469 73.9254 20.5469 73.1277 20.5469C72.9469 20.5469 72.8634 20.5005 72.8866 20.315C72.8912 20.2564 72.8912 20.1975 72.8866 20.1388V8.03524C72.8866 7.65034 72.8402 7.70135 73.2205 7.69671H76.1791ZM76.0354 12.0419C76.0354 12.5057 76.0354 12.9694 76.0354 13.4332C76.0354 13.6186 76.0957 13.6743 76.2765 13.6697C77.0463 13.6697 77.8208 13.6697 78.5952 13.6697C78.8991 13.664 79.1976 13.5878 79.467 13.4471C79.7234 13.3289 79.9407 13.14 80.0935 12.9026C80.2463 12.6652 80.3282 12.3892 80.3296 12.1069C80.3629 11.8369 80.3192 11.563 80.2035 11.3169C80.0878 11.0707 79.9048 10.8623 79.6757 10.7156C79.3504 10.5061 78.9729 10.392 78.5859 10.3864C77.8115 10.3864 77.0417 10.3864 76.2673 10.3864C76.0725 10.3864 76.0307 10.4606 76.0354 10.6322C76.0354 11.1052 76.0354 11.5736 76.0354 12.0419Z" fill="#B1B1B1"/>
<path d="M57.4258 37.2965L59.1138 34.9175C59.2354 34.9315 59.3501 34.9815 59.443 35.0613C60.204 35.5217 61.0361 35.8524 61.9055 36.0398C62.3606 36.1564 62.8361 36.1691 63.2967 36.0769C63.4926 36.055 63.6764 35.9713 63.8215 35.8379C63.9666 35.7045 64.0654 35.5283 64.1036 35.3349C64.1566 35.1155 64.1363 34.8848 64.0459 34.6779C63.9554 34.4711 63.7998 34.2996 63.6028 34.1895C63.2136 33.9739 62.8013 33.8027 62.3739 33.6794C61.5012 33.455 60.653 33.1443 59.8419 32.7519C59.2573 32.4773 58.7386 32.0804 58.3208 31.5879C57.8168 30.9138 57.588 30.0733 57.6808 29.2368C57.714 28.4221 58.018 27.6418 58.5447 27.0194C59.0713 26.397 59.7905 25.968 60.5885 25.8005C61.6842 25.5472 62.8158 25.4875 63.932 25.6242C64.7112 25.7046 65.4775 25.8806 66.2136 26.1483C66.7021 26.3142 67.1484 26.5849 67.5214 26.9413C67.3359 27.2891 66.0467 29.2321 65.8334 29.4825C65.1368 28.9997 64.347 28.668 63.5147 28.5087C63.0706 28.4046 62.6102 28.3904 62.1605 28.467C62.0031 28.4839 61.8517 28.5377 61.7188 28.6239C61.5859 28.7101 61.4751 28.8263 61.3954 28.9632C61.2968 29.1594 61.28 29.3867 61.3487 29.5953C61.4173 29.8039 61.5659 29.9768 61.7617 30.0761C62.0417 30.2243 62.3352 30.3454 62.6382 30.4378C63.357 30.679 64.099 30.8552 64.8039 31.1427C65.4691 31.3896 66.0941 31.7334 66.6588 32.1629C67.0381 32.4586 67.3435 32.8382 67.5511 33.2719C67.7587 33.7057 67.8628 34.1817 67.8553 34.6625C67.8929 35.6716 67.5634 36.6602 66.9278 37.4449C66.2723 38.2399 65.3422 38.7596 64.3216 38.9011C62.3695 39.2267 60.3645 38.9417 58.5805 38.0849C58.4314 38.0166 58.2899 37.9326 58.1585 37.8345C57.8988 37.6536 57.6716 37.482 57.4258 37.2965Z" fill="#B1B1B1"/>
<path d="M113.598 14.1148V8.1326C113.598 8.05377 113.598 7.9703 113.598 7.88682C113.598 7.80335 113.625 7.68742 113.769 7.69669C113.839 7.69669 113.908 7.69669 113.983 7.69669H122.641C122.687 7.69669 122.738 7.69669 122.78 7.69669C122.97 7.69669 123.016 7.75698 123.016 7.93783C123.016 8.6659 123.016 9.39397 123.016 10.1174C123.016 10.4188 123.016 10.3956 122.719 10.3956H117.308C116.756 10.3956 116.756 10.3956 116.756 10.9475V12.4268C116.756 12.8488 116.7 12.7885 117.141 12.7885H121.611C121.681 12.7885 121.75 12.7885 121.82 12.7885C121.889 12.7885 121.991 12.821 121.991 12.9462C121.991 13.6743 121.991 14.3977 121.991 15.1258C121.991 15.3066 121.889 15.302 121.764 15.302H117.053C116.751 15.302 116.76 15.2649 116.76 15.5756V17.5789C116.76 17.8897 116.76 17.8572 117.053 17.8572H122.687C123.058 17.8572 123.03 17.8294 123.03 18.1957V20.3057C123.03 20.5747 123.03 20.5793 122.756 20.5793H113.746C113.728 20.5816 113.711 20.5798 113.694 20.5741C113.677 20.5684 113.662 20.5589 113.649 20.5463C113.637 20.5338 113.627 20.5185 113.621 20.5017C113.616 20.485 113.614 20.4671 113.616 20.4495V14.1148H113.598Z" fill="#B1B1B1"/>
<path d="M88.2396 29.9742V26.1391C88.2396 25.8608 88.2396 25.8562 88.5225 25.8562H91.0591C91.393 25.8562 91.3606 25.8237 91.3606 26.1576C91.3606 28.5041 91.3606 30.846 91.3606 33.1925C91.3455 33.7825 91.4983 34.3647 91.8011 34.8713C91.9445 35.1204 92.136 35.3385 92.3645 35.5129C92.593 35.6872 92.8539 35.8144 93.1321 35.8869C93.7088 36.0457 94.3192 36.0344 94.8896 35.8544C95.2304 35.7493 95.5404 35.5626 95.7925 35.3104C96.0447 35.0583 96.2314 34.7483 96.3365 34.4075C96.4913 33.9159 96.5618 33.4016 96.5452 32.8865C96.5452 30.7069 96.5452 28.5227 96.5452 26.3431V26.1669C96.5452 25.8655 96.5127 25.8748 96.8188 25.8748H99.3925C99.6986 25.8748 99.6661 25.8748 99.6661 26.1669V32.8355C99.6661 33.1508 99.6661 33.4661 99.6429 33.7629C99.578 35.07 99.0674 36.3155 98.1961 37.292C97.385 38.1989 96.2765 38.7861 95.0705 38.9475C94.1318 39.0963 93.1727 39.0537 92.251 38.8223C90.9292 38.4858 89.7951 37.6386 89.0975 36.4665C88.5184 35.5382 88.2189 34.4628 88.235 33.3688L88.2396 29.9742Z" fill="#B1B1B1"/>
<path d="M61.6324 7.69669C62.5831 7.69669 63.5337 7.66887 64.4797 7.69669C65.2153 7.69247 65.9414 7.86207 66.599 8.19167C67.2566 8.52127 67.8271 9.00155 68.2639 9.59338C68.8741 10.4491 69.1315 11.5069 68.9826 12.5474C68.9254 13.3778 68.5999 14.1672 68.0552 14.7965C67.3648 15.5579 66.4358 16.0616 65.4211 16.2248C64.9627 16.3129 64.4967 16.3548 64.0299 16.35C63.3019 16.35 62.5738 16.35 61.8457 16.35C61.4608 16.35 61.5026 16.3037 61.5026 16.6793V20.162C61.5026 20.2315 61.5026 20.3057 61.5026 20.3753C61.5026 20.5237 61.4562 20.5793 61.3031 20.5793C60.8951 20.5793 60.4823 20.5793 60.0742 20.5793C59.5688 20.5793 59.0633 20.5793 58.5578 20.5793C58.4094 20.5793 58.3399 20.5283 58.3584 20.3753C58.3584 20.3057 58.3584 20.2362 58.3584 20.1666V7.97494C58.3584 7.7106 58.3584 7.70597 58.6274 7.70597L61.6324 7.69669ZM61.4794 12.0234V13.4146C61.4794 13.6604 61.4794 13.665 61.7298 13.665H63.8769C64.18 13.6614 64.4801 13.6033 64.7626 13.4934C65.0614 13.3828 65.3188 13.1827 65.4997 12.9205C65.6806 12.6582 65.7762 12.3466 65.7736 12.028C65.7842 11.7212 65.7011 11.4184 65.5354 11.16C65.3698 10.9015 65.1293 10.6996 64.8461 10.5811C64.5804 10.4557 64.2912 10.3877 63.9975 10.3817C63.2277 10.3817 62.4532 10.3817 61.6788 10.3817C61.5025 10.3817 61.4608 10.4467 61.4655 10.609C61.484 11.0866 61.4794 11.555 61.4794 12.0234Z" fill="#B1B1B1"/>
<path d="M127.761 29.5435C127.076 28.9643 126.213 28.6371 125.317 28.616C124.694 28.5759 124.072 28.7058 123.517 28.9916C123.114 29.209 122.76 29.5088 122.48 29.8714C122.2 30.2341 121.998 30.6516 121.89 31.097C121.602 32.0573 121.661 33.0881 122.057 34.0092C122.28 34.5805 122.666 35.0742 123.166 35.43C123.666 35.7858 124.258 35.9882 124.871 36.0126C125.624 36.0705 126.377 35.9163 127.046 35.5674C127.295 35.4338 127.52 35.2616 127.714 35.0573C127.825 35.0944 127.867 35.1918 127.932 35.2706L129.365 37.1534C129.588 37.4502 129.592 37.4595 129.3 37.7052C128.714 38.1944 128.029 38.5504 127.292 38.7487C126.334 39.0205 125.334 39.1117 124.343 39.0176C122.88 38.9248 121.499 38.3092 120.452 37.2832C119.523 36.3792 118.889 35.2152 118.634 33.9443C118.316 32.4969 118.428 30.9877 118.959 29.6037C119.264 28.7435 119.764 27.9656 120.419 27.3308C121.075 26.6961 121.869 26.2217 122.738 25.9448C123.699 25.6194 124.717 25.4927 125.728 25.5725C126.74 25.6522 127.725 25.9366 128.623 26.4086C128.901 26.5778 129.164 26.7718 129.407 26.9883C129.546 27.0949 129.518 27.1877 129.407 27.3082C128.98 27.8694 128.563 28.4305 128.145 28.9962L127.761 29.5435Z" fill="#B1B1B1"/>
<path d="M87.8906 14.1144V8.08583C87.8906 8.01627 87.8906 7.94671 87.8906 7.87715C87.8674 7.71484 87.9508 7.68701 88.0946 7.68701C89.0221 7.68701 89.9264 7.68701 90.8399 7.68701C91.0022 7.68701 91.0857 7.72411 91.0625 7.90033C91.0579 7.97136 91.0579 8.04262 91.0625 8.11365V20.1708C91.0625 20.6346 91.1228 20.5882 90.6266 20.5928H88.1966C87.8998 20.5928 87.8952 20.5928 87.8952 20.2868L87.8906 14.1144Z" fill="#B1B1B1"/>
<path d="M21.7432 27.4496C19.1781 27.4878 16.6309 27.0006 14.248 26.016L14.162 25.982C13.9082 25.8718 13.9041 25.8718 13.9451 25.5579C13.986 25.244 14.0229 25.0107 14.0679 24.7393C14.9189 19.8792 17.4712 15.5157 21.2356 12.4853C21.4812 12.2817 21.4894 12.2817 21.7227 12.4853C23.2195 13.6957 24.539 15.1244 25.6402 16.7269C27.0324 18.7691 28.0457 21.0618 28.6285 23.488C28.7963 24.1963 28.9109 24.9089 29.0378 25.6088C29.0665 25.7869 29.0091 25.8675 28.8413 25.9354C27.3686 26.5554 25.8272 26.9828 24.2525 27.2079C23.4228 27.3508 22.5841 27.4316 21.7432 27.4496Z" fill="#B1B1B1"/>
</svg>
