<svg width="182" height="42" viewBox="0 0 182 42" fill="none" xmlns="http://www.w3.org/2000/svg">
<path d="M168.527 15.6318H171.346V30.4494H168.527V15.6318ZM175.623 27.8925L171.406 22.8519L177.237 15.6318H180.405L174.382 22.6327L177.43 25.8714C178.35 27.1045 179.606 28.0397 181.044 28.5622L180.562 30.7416C179.58 30.6991 178.622 30.4247 177.764 29.9405C176.907 29.4564 176.173 28.7758 175.623 27.9534V27.8925ZM152.541 15.6318H155.36V21.9022H162.263V15.6318H165.082V30.4494H162.251V24.1547H155.348V30.4494H152.529V15.6318H152.541ZM136.88 26.4558C136.88 22.718 140.156 21.9509 142.71 21.9265H145.903V20.2707C145.903 18.2374 144.879 17.6895 142.734 17.6895C141.335 17.687 139.946 17.9259 138.626 18.3957L138.036 16.2528C139.671 15.572 141.425 15.2324 143.192 15.2544C146.71 15.2544 148.637 16.4719 148.637 19.5158V27.2472C148.642 27.4328 148.688 27.615 148.772 27.7798C148.857 27.9446 148.978 28.0877 149.125 28.1981C149.273 28.3086 149.443 28.3834 149.624 28.417C149.805 28.4505 149.991 28.4419 150.167 28.3917L149.951 30.5589C149.766 30.5722 149.581 30.5722 149.396 30.5589C147.891 30.5589 146.421 30.0963 146.144 28.7691C144.832 29.9806 143.137 30.6799 141.361 30.7416C138.651 30.7416 136.856 29.244 136.856 26.5045L136.88 26.4558ZM145.867 27.0889V23.692L142.759 23.8259C140.747 23.8259 139.59 24.7513 139.59 26.261C139.586 26.5779 139.651 26.8919 139.78 27.1808C139.908 27.4698 140.099 27.7266 140.336 27.9332C140.574 28.1399 140.854 28.2913 141.156 28.3768C141.458 28.4623 141.775 28.4799 142.084 28.4282C143.441 28.3348 144.748 27.872 145.867 27.0889ZM121.46 22.2188C121.46 19.1749 122.026 14.4021 123.712 12.8071C125.194 11.3948 129.134 10.4451 133.723 9.58065L134.181 12.1253C130.097 12.8315 126.471 13.4768 125.592 14.3534C124.812 15.4691 124.364 16.7874 124.303 18.1522C125.828 17.2934 127.544 16.837 129.29 16.825C132.808 16.825 135.036 18.5905 135.036 23.0954C135.036 28.3795 132.001 30.7416 127.953 30.7416C123.905 30.7416 121.46 28.1969 121.46 22.2188ZM132.218 23.1928C132.218 20.8308 131.23 19.0166 128.603 19.0166C127.077 19.0535 125.583 19.4718 124.255 20.2342C124.255 20.7212 124.255 21.4517 124.255 21.9144C124.255 26.3341 125.568 28.4039 128.254 28.4039C131.422 28.4039 132.302 25.6888 132.302 23.1441L132.218 23.1928ZM106.281 15.6318H109.003V16.8494C110.197 15.8726 111.684 15.3358 113.22 15.3275C116.677 15.3275 119.05 17.7625 119.05 22.7058C119.05 28.7935 115.508 30.7903 111.557 30.7903C110.702 30.7696 109.849 30.6964 109.003 30.5711V36.464H106.208V15.6318H106.281ZM116.267 22.791C116.267 20.1002 115.328 17.6895 112.509 17.6895C111.288 17.749 110.104 18.131 109.075 18.7975V28.1847C109.899 28.3376 110.732 28.4271 111.569 28.4526C114.93 28.4526 116.267 26.0905 116.267 22.7788V22.791ZM90.9689 23.2902C90.9689 17.4338 93.9204 15.2301 97.5947 15.2301C101.703 15.2301 103.425 17.8599 103.425 22.6936V23.692H93.7878C93.7878 27.6003 96.0165 28.3795 98.6066 28.3795C99.9725 28.3728 101.329 28.1552 102.63 27.7342L103.112 29.9258C101.525 30.4859 99.8537 30.7619 98.1729 30.7416C93.7999 30.7416 90.9448 29.0005 90.9448 23.278L90.9689 23.2902ZM100.498 21.7074C100.498 19.0775 99.5583 17.3729 97.414 17.3729C95.4865 17.3729 94.0288 18.8096 93.7999 21.7074H100.462H100.498ZM75.0308 22.2188C75.0308 19.1749 75.597 14.4021 77.2836 12.8071C78.7653 11.3948 82.7047 10.4451 87.2945 9.58065L87.7523 12.1253C83.6684 12.8315 80.0544 13.4768 79.1629 14.3534C78.3822 15.4688 77.9348 16.7873 77.8739 18.1522C79.3997 17.2934 81.1149 16.837 82.8613 16.825C86.379 16.825 88.6077 18.5905 88.6077 23.0954C88.6318 28.3065 85.5959 30.7416 81.5361 30.7416C77.4763 30.7416 75.0308 28.136 75.0308 22.2188ZM85.7887 23.1928C85.7887 20.8308 84.8008 19.0166 82.1746 19.0166C80.6478 19.0535 79.1537 19.4718 77.8257 20.2342C77.8257 20.7212 77.8257 21.4517 77.8257 21.9144C77.8257 26.3341 79.1388 28.4039 81.8252 28.4039C84.9936 28.4039 85.873 25.6888 85.873 23.1441L85.7887 23.1928ZM57.8157 21.0012C57.8157 14.9135 61.2852 11.0174 67.5135 11.0174C69.4526 10.9378 71.3832 11.3172 73.1515 12.1253L72.3202 14.3534C70.8022 13.7826 69.1934 13.4978 67.5737 13.5133C63.7669 13.5133 60.7672 15.6075 60.7672 20.7334C60.7672 25.8592 63.8633 28.2456 68.0797 28.2456C69.5841 28.261 71.0812 28.0308 72.513 27.5638L73.1876 29.8406C71.4169 30.5258 69.5292 30.8486 67.634 30.7903C61.1648 30.7903 57.8278 26.882 57.8278 21.0499L57.8157 21.0012ZM42.6607 20.2342C42.6527 25.9061 40.4157 31.3426 36.4417 35.3475C32.4677 39.3525 27.0823 41.598 21.4702 41.5899C15.8581 41.5818 10.479 39.3209 6.51631 35.3045C2.55361 31.2881 0.331878 25.8452 0.339865 20.1733C0.339865 19.6863 0.339865 19.2114 0.339865 18.7488L13.1457 26.2001L40.2754 10.3721C41.8055 13.3859 42.6026 16.725 42.6005 20.1124L42.6607 20.2342ZM13.1457 20.7455L1.21929 13.8177C1.00011 14.6103 0.827142 15.4153 0.701273 16.2284L13.1939 23.5337L39.1551 8.43616C38.7264 7.78294 38.2639 7.15301 37.7697 6.54897L13.1457 20.7455ZM36.1674 4.77135C35.5798 4.20033 34.9604 3.66373 34.3122 3.16419L13.1939 15.4249L3.1227 9.56847C2.73958 10.2468 2.39371 10.9459 2.08667 11.6627L13.1939 18.1156L36.1674 4.77135ZM13.1939 12.7341L32.1678 1.70314C31.3716 1.2436 30.5467 0.836892 29.6982 0.485596L13.1939 10.0433L5.84531 5.78191C5.32313 6.36342 4.8325 6.97308 4.37558 7.60823L13.1939 12.7341Z" fill="#B1B1B1"/>
</svg>
